<svg xmlns="http://www.w3.org/2000/svg" width="21.5" height="21.5"><path fill="none" d="M0 0h21.5v21.5H0V0Z"/><path fill="#141B34" fill-rule="evenodd" d="M1.28.22A.75.75 0 1 0 .22 1.28l1.367 1.368A9.05 9.05 0 0 0 0 7.75c0 2.022.68 3.897 1.832 5.448a.75.75 0 1 0 1.204-.896C2.062 10.992 1.5 9.428 1.5 7.75c0-1.456.423-2.826 1.17-4.019l1.798 1.797A5.527 5.527 0 0 0 4 7.75c0 1.281.445 2.466 1.194 3.453a.75.75 0 1 0 1.195-.906C5.819 9.545 5.5 8.673 5.5 7.75c0-.36.048-.71.14-1.049l4.36 4.36v7.689a.75.75 0 0 0 1.5 0v-6.19l8.72 8.72a.75.75 0 1 0 1.06-1.06l-9.996-9.997-.007-.007L1.28.22Zm18.388 2.082a.75.75 0 0 0-1.204.896C19.438 4.508 20 6.072 20 7.75c0 1.678-.562 3.243-1.536 4.552a.75.75 0 1 0 1.204.896C20.82 11.648 21.5 9.772 21.5 7.75c0-2.022-.68-3.897-1.832-5.448Zm-3.362 1.995a.75.75 0 1 0-1.195.906c.57.752.889 1.624.889 2.547s-.318 1.795-.889 2.547a.75.75 0 0 0 1.195.906c.75-.987 1.194-2.172 1.194-3.453 0-1.281-.445-2.466-1.194-3.453Zm-5.87 2.242A1.254 1.254 0 0 1 12 7.75c0 .11-.014.214-.04.313a.75.75 0 1 0 1.453.374 2.75 2.75 0 0 0-3.35-3.35.75.75 0 0 0 .374 1.452Z"/></svg>