<svg xmlns="http://www.w3.org/2000/svg" width="24" height="24"><g clip-path="url(#b)"><path fill="none" d="M0 0h24v24H0V0Z"/><path fill="#141B34" fill-rule="evenodd" d="M21.702 2.293a1 1 0 0 0-1.414 1.414l.005.005a1 1 0 1 0 1.414-1.414l-.005-.005ZM19.204 4.79a1 1 0 0 0-1.414 1.414l.005.006a1 1 0 0 0 1.414-1.414l-.005-.006Zm-2.497 2.498a1 1 0 1 0-1.414 1.414l.005.005a1 1 0 1 0 1.414-1.414l-.005-.005Zm-9.862-.261c-.348-.477-.661-.91-.962-1.208-.32-.318-.737-.596-1.3-.567-.522.027-.895.282-1.182.614-.252.29-.485.697-.729 1.114C.331 10.997.88 16.235 4.322 19.677c3.443 3.443 8.681 3.992 12.698 1.65.417-.243.823-.476 1.114-.728.332-.287.587-.66.614-1.182.029-.563-.249-.98-.567-1.3-.298-.3-.73-.614-1.208-.962a35.824 35.824 0 0 1-2.283-1.826A4.265 4.265 0 0 0 8.67 9.31a35.804 35.804 0 0 1-1.825-2.283Zm-2.18-.275a.083.083 0 0 0-.008-.003c-.008-.002-.035-.002-.123.1-.138.159-.292.418-.566.887a8.995 8.995 0 0 0 12.296 12.296c.47-.274.728-.428.888-.567.103-.089.1-.115.099-.123a.698.698 0 0 0-.134-.169c-.194-.195-.509-.427-1.028-.807-1.892-1.381-3.741-3.061-5.568-4.887-1.826-1.827-3.506-3.676-4.887-5.568-.38-.52-.612-.834-.807-1.027a.696.696 0 0 0-.163-.132Zm8.775 3.808a2.765 2.765 0 0 1 .13 3.77 65.95 65.95 0 0 1-1.988-1.912A65.894 65.894 0 0 1 9.67 10.43a2.765 2.765 0 0 1 3.77.13Z"/></g></svg>