<svg xmlns="http://www.w3.org/2000/svg" width="21.5" height="21.5"><path fill="none" d="M0 0h21.5v21.5H0V0Z"/><path fill="#141B34" fill-rule="evenodd" d="M14.384.004a.75.75 0 1 0-.153 1.492c1.528.157 2.906.76 3.958 1.81 1.056 1.055 1.66 2.435 1.815 3.966a.75.75 0 0 0 1.492-.15c-.185-1.836-.919-3.551-2.247-4.877C17.925.924 16.215.192 14.384.004Zm-.463 3.51a.75.75 0 1 0-.342 1.46 3.92 3.92 0 0 1 1.9 1.038 3.909 3.909 0 0 1 1.042 1.908.75.75 0 0 0 1.461-.34 5.41 5.41 0 0 0-1.442-2.63 5.419 5.419 0 0 0-2.62-1.436ZM5.595 5.777c-.348-.477-.662-.91-.962-1.208-.32-.318-.737-.596-1.3-.567-.522.027-.895.282-1.182.614-.252.29-.485.697-.729 1.115-2.341 4.016-1.792 9.254 1.65 12.697 3.443 3.442 8.681 3.991 12.698 1.65.417-.244.823-.477 1.114-.729.332-.287.587-.66.614-1.182.029-.563-.249-.98-.567-1.3-.298-.3-.73-.614-1.208-.962a35.791 35.791 0 0 1-2.283-1.826A4.265 4.265 0 0 0 7.42 8.06a35.802 35.802 0 0 1-1.825-2.283Zm-2.18-.274a.085.085 0 0 0-.008-.004c-.008-.002-.035-.002-.123.1-.138.159-.292.418-.566.887a8.995 8.995 0 0 0 12.296 12.296c.47-.274.728-.428.888-.566.103-.09.1-.116.098-.124a.698.698 0 0 0-.134-.169c-.193-.195-.508-.427-1.027-.807-1.892-1.381-3.742-3.06-5.568-4.887-1.826-1.826-3.506-3.676-4.887-5.568-.38-.52-.612-.834-.807-1.027a.696.696 0 0 0-.163-.131ZM12.19 9.31a2.765 2.765 0 0 1 .13 3.77 65.857 65.857 0 0 1-1.988-1.912A65.847 65.847 0 0 1 8.42 9.18a2.765 2.765 0 0 1 3.77.13Z"/></svg>