<svg xmlns="http://www.w3.org/2000/svg" width="24" height="24"><g clip-path="url(#b)"><path fill="none" d="M0 0h24v24H0V0Z"/><g fill="#141B34" fill-rule="evenodd"><path d="M20.525 11.545a1.602 1.602 0 0 0-1.083-.287c-.21.021-.388.09-.537.162-.143.067-.305.16-.475.257-.294.167-.9.474-1.112 1.26-.069.253-.069.523-.068.802v4.522c0 .28 0 .55.068.803.212.785.818 1.092 1.112 1.259.17.097.332.19.475.258.15.07.327.14.537.161a1.602 1.602 0 0 0 1.474-.68c.097-.128.203-.29.318-.464.197-.299.524-.747.77-1.148.263-.432.52-.937.645-1.513a4.398 4.398 0 0 0 0-1.874c-.175-.8-.655-1.507-1.376-2.603-.043-.064-.176-.28-.263-.406a2.028 2.028 0 0 0-.485-.509Zm-.975 1.229a.672.672 0 0 1 .054-.024.11.11 0 0 1 .06.023l.008.008a1.1 1.1 0 0 1 .108.132c.034.048.068.101.108.166.038.06.085.136.132.207.788 1.195 1.062 1.634 1.164 2.098.088.404.088.828 0 1.232-.076.346-.238.688-.46 1.051-.242.394-.468.69-.742 1.106a8.22 8.22 0 0 1-.262.385.659.659 0 0 1-.06.071.11.11 0 0 1-.056.02.654.654 0 0 1-.054-.023 6.8 6.8 0 0 1-.378-.207 1.868 1.868 0 0 1-.322-.206.258.258 0 0 1-.084-.14c-.01-.035-.016-.088-.016-.477v-4.392c0-.389.006-.441.016-.476a.258.258 0 0 1 .084-.141 1.83 1.83 0 0 1 .322-.206c.19-.108.296-.168.378-.207Zm-7.554.476c-1.298 0-2.492.483-3.471 1.284a.75.75 0 0 0 .95 1.161c.744-.608 1.609-.945 2.52-.945.916 0 1.784.339 2.529.951a.75.75 0 0 0 .952-1.159c-.981-.806-2.178-1.292-3.48-1.292Zm0 3.018c-.736 0-1.425.217-2.024.591a.75.75 0 0 0 .793 1.273 2.305 2.305 0 0 1 1.23-.364c.436 0 .855.127 1.237.367a.75.75 0 1 0 .797-1.27 3.808 3.808 0 0 0-2.033-.597ZM11 20a1 1 0 0 1 1-1h.006a1 1 0 0 1 0 2H12a1 1 0 0 1-1-1Z"/><path d="M4.75 10.875C4.75 6.951 7.985 3.75 12 3.75c4.015 0 7.25 3.201 7.25 7.125v1.875h1.5v-1.875C20.75 6.1 16.821 2.25 12 2.25S3.25 6.1 3.25 10.875v.89c-.223.23-.4.508-.523.696-.721 1.095-1.201 1.802-1.376 2.602a4.398 4.398 0 0 0 0 1.874c.126.576.382 1.08.646 1.512.245.402.572.85.769 1.149.138.21.335.512.593.741.291.26.69.454 1.199.403.21-.021.388-.09.537-.162.143-.068.305-.16.475-.257.23-.131.49-.27.69-.487.492-.534.49-1.203.49-1.601v-4.47c0-.398.002-1.067-.49-1.6-.2-.218-.46-.357-.69-.488-.17-.097-.332-.19-.475-.257a1.822 1.822 0 0 0-.345-.128v-.417Zm-.404 1.916a.281.281 0 0 1 .051-.04c.01.003.027.01.053.023.082.039.189.1.378.207.143.081.222.127.28.164a.463.463 0 0 1 .05.036c.026.028.049.066.066.154a2.6 2.6 0 0 1 .026.47v4.39a2.6 2.6 0 0 1-.026.47c-.017.088-.04.126-.067.154a.452.452 0 0 1-.049.036 6.204 6.204 0 0 1-.28.164 6.79 6.79 0 0 1-.378.207.674.674 0 0 1-.053.023.246.246 0 0 1-.041-.03 1.123 1.123 0 0 1-.141-.162 5.578 5.578 0 0 1-.196-.284c-.275-.417-.501-.712-.742-1.106-.223-.364-.385-.706-.46-1.05a2.899 2.899 0 0 1 0-1.233c.1-.464.375-.903 1.163-2.098.081-.123.145-.221.21-.311.065-.088.115-.146.156-.184Zm1.811 6.027-1 1 1-1Z"/></g></g></svg>