<svg xmlns="http://www.w3.org/2000/svg" width="24" height="24"><g clip-path="url(#b)"><path fill="none" d="M0 0h24v24H0V0Z"/><g fill="#141B34" fill-rule="evenodd"><path d="M7.724 4.936C8.757 4.145 9.48 3.592 10.09 3.23c.593-.352 1.007-.48 1.41-.48s.817.128 1.41.48c.61.362 1.333.915 2.366 1.706l1.224.936c.831.637 1.41 1.08 1.831 1.477.41.384.626.683.756 1.006.126.313.18.67.159 1.21-.021.554-.117 1.246-.26 2.227a.75.75 0 1 0 1.485.216c.14-.96.25-1.736.274-2.387.025-.667-.036-1.252-.267-1.827-.24-.594-.617-1.066-1.12-1.538-.49-.46-1.139-.957-1.946-1.575l-1.224-.937c-1.004-.769-1.809-1.386-2.512-1.804-.72-.428-1.403-.69-2.176-.69-.773 0-1.456.262-2.176.69-.703.418-1.507 1.035-2.512 1.804l-1.224.937c-.807.618-1.457 1.115-1.946 1.575-.503.472-.88.944-1.12 1.538-.239.593-.296 1.199-.264 1.892.031.677.15 1.495.298 2.514l.256 1.763c.21 1.446.376 2.6.622 3.497.25.916.607 1.657 1.256 2.229.65.573 1.426.826 2.357.946.898.115 2.027.115 3.435.115H11a.75.75 0 0 0 0-1.5h-.468c-1.471 0-2.503-.001-3.294-.103-.769-.099-1.215-.283-1.557-.584-.344-.303-.59-.731-.8-1.5-.216-.786-.369-1.831-.584-3.316l-.256-1.763c-.152-1.048-.258-1.78-.285-2.367-.026-.57.027-.939.157-1.262.13-.323.347-.622.756-1.006.421-.396 1-.84 1.83-1.477l1.225-.936Z"/><path d="M16.995 14.25c-1.666 0-3.202.615-4.468 1.646a.75.75 0 0 0 .946 1.164c1.031-.84 2.24-1.31 3.522-1.31 1.286 0 2.498.474 3.53 1.318a.75.75 0 0 0 .95-1.162c-1.27-1.037-2.81-1.656-4.48-1.656Zm0 3.36a4.84 4.84 0 0 0-2.565.746.75.75 0 1 0 .79 1.275 3.343 3.343 0 0 1 1.775-.52 3.34 3.34 0 0 1 1.782.525.75.75 0 0 0 .794-1.272 4.845 4.845 0 0 0-2.576-.753ZM16 22a1 1 0 0 1 1-1h.006a1 1 0 0 1 0 2H17a1 1 0 0 1-1-1Z"/></g></g></svg>