<svg xmlns="http://www.w3.org/2000/svg" width="21.5" height="21.5"><path fill="none" d="M0 0h21.5v21.5H0V0Z"/><path fill="#141B34" fill-rule="evenodd" d="M1.28.22A.75.75 0 1 0 .22 1.28l3.413 3.413A10.725 10.725 0 0 0 0 12.75c0 2.42.8 4.655 2.15 6.451a.75.75 0 0 0 1.2-.9A9.206 9.206 0 0 1 1.5 12.75a9.227 9.227 0 0 1 3.196-6.994l1.756 1.757A6.78 6.78 0 0 0 4 12.75c0 1.724.638 3.3 1.688 4.495a.75.75 0 1 0 1.126-.99A5.289 5.289 0 0 1 5.5 12.75c0-1.702.793-3.212 2.019-4.17l1.813 1.813a2.75 2.75 0 1 0 3.775 3.775l1.687 1.686a4.96 4.96 0 0 1-.32.4.75.75 0 0 0 1.127.991c.091-.104.18-.21.264-.32l4.355 4.355a.75.75 0 1 0 1.06-1.06l-4.986-4.986a.795.795 0 0 0-.027-.028l-2.983-2.983-.007-.007-1.993-1.993-.007-.007L1.28.22Zm6.233 3.862A9.229 9.229 0 0 1 10.75 3.5 9.25 9.25 0 0 1 20 12.75c0 1.14-.206 2.23-.582 3.238a.75.75 0 0 0 1.405.524c.438-1.171.677-2.44.677-3.762C21.5 6.813 16.687 2 10.75 2c-1.322 0-2.59.24-3.763.677a.75.75 0 1 0 .526 1.405ZM10.75 6a.75.75 0 0 0 0 1.5c2.9 0 5.25 2.35 5.25 5.25a.75.75 0 0 0 1.5 0A6.75 6.75 0 0 0 10.75 6ZM9.5 12.75c0-.594.415-1.092.97-1.219l1.499 1.498A1.25 1.25 0 0 1 9.5 12.75Z"/></svg>