<svg xmlns="http://www.w3.org/2000/svg" width="21.5" height="21.5"><path fill="none" d="M0 0h21.5v21.5H0V0Z"/><path fill="#141B34" fill-rule="evenodd" d="M0 10.75C0 4.813 4.813 0 10.75 0S21.5 4.813 21.5 10.75 16.687 21.5 10.75 21.5 0 16.687 0 10.75Zm9.738-8.699c.39-.412.732-.551 1.012-.551s.622.139 1.012.551c.392.414.78 1.054 1.12 1.906C13.5 5.5 13.916 7.615 13.99 10H7.51c.073-2.385.49-4.501 1.107-6.043.34-.852.728-1.492 1.12-1.906Zm4.537 1.35c.699 1.747 1.141 4.06 1.214 6.599h4.481a9.257 9.257 0 0 0-6.427-8.071c.273.438.517.934.732 1.471ZM6.01 10H1.53a9.257 9.257 0 0 1 6.427-8.071A9.347 9.347 0 0 0 7.225 3.4C6.526 5.148 6.084 7.46 6.011 10Zm1.214 8.1c.215.537.46 1.034.732 1.471A9.257 9.257 0 0 1 1.53 11.5h4.48c.074 2.54.516 4.852 1.215 6.6Zm.286-6.6h6.478c-.073 2.385-.49 4.501-1.107 6.043-.34.852-.728 1.492-1.12 1.906-.39.412-.732.551-1.012.551s-.622-.139-1.012-.551c-.392-.414-.78-1.054-1.12-1.907C8 16.003 7.584 13.886 7.51 11.5Zm6.764 6.6a9.356 9.356 0 0 1-.732 1.471A9.257 9.257 0 0 0 19.97 11.5h-4.48c-.074 2.54-.516 4.852-1.215 6.6Z"/></svg>