<svg xmlns="http://www.w3.org/2000/svg" width="24" height="24"><g clip-path="url(#b)"><path fill="none" d="M0 0h24v24H0V0Z"/><g fill="#141B34" fill-rule="evenodd"><path d="M6 12.25h-.052c-.898 0-1.648 0-2.242.08-.628.084-1.195.27-1.65.726-.456.455-.642 1.022-.726 1.65-.08.594-.08 1.344-.08 2.242v.104c0 .898 0 1.648.08 2.242.084.628.27 1.195.725 1.65.456.456 1.023.642 1.65.726.595.08 1.345.08 2.243.08h12.104c.898 0 1.648 0 2.242-.08.628-.084 1.195-.27 1.65-.726.456-.455.642-1.022.726-1.65.08-.594.08-1.343.08-2.242v-.104c0-.899 0-1.648-.08-2.242-.084-.628-.27-1.195-.726-1.65-.455-.456-1.022-.642-1.65-.726-.594-.08-1.343-.08-2.242-.08H6Zm-2.884 1.866c.13-.13.328-.237.79-.3.482-.064 1.13-.066 2.094-.066h12c.964 0 1.612.002 2.095.066.461.063.659.17.789.3.13.13.237.328.3.79.064.482.066 1.13.066 2.094s-.002 1.612-.067 2.095c-.062.461-.169.659-.3.789-.13.13-.327.237-.788.3-.483.064-1.131.066-2.095.066H6c-.964 0-1.612-.002-2.095-.067-.461-.062-.659-.169-.789-.3-.13-.13-.237-.327-.3-.788-.064-.483-.066-1.131-.066-2.095 0-.964.002-1.612.067-2.095.062-.461.169-.659.3-.789ZM11.995 1.25c-1.666 0-3.202.615-4.468 1.646a.75.75 0 0 0 .946 1.164c1.031-.84 2.24-1.31 3.522-1.31 1.286 0 2.498.474 3.53 1.318a.75.75 0 1 0 .95-1.162c-1.27-1.037-2.81-1.656-4.48-1.656Zm0 3.36a4.84 4.84 0 0 0-2.565.746.75.75 0 1 0 .79 1.275 3.344 3.344 0 0 1 1.775-.52c.632 0 1.236.185 1.782.525a.75.75 0 0 0 .794-1.272 4.845 4.845 0 0 0-2.576-.753ZM11 9a1 1 0 0 1 1-1h.006a1 1 0 0 1 0 2H12a1 1 0 0 1-1-1Z"/><path d="M17 17a1 1 0 0 1 1-1h.009a1 1 0 1 1 0 2h-.01a1 1 0 0 1-1-1Zm-4 0a1 1 0 0 1 1-1h.009a1 1 0 1 1 0 2h-.01a1 1 0 0 1-1-1Zm-7.75 0a.75.75 0 0 1 .75-.75h4a.75.75 0 0 1 0 1.5H6a.75.75 0 0 1-.75-.75Z"/></g></g></svg>