<svg xmlns="http://www.w3.org/2000/svg" width="24" height="24"><g clip-path="url(#b)"><path fill="none" d="M0 0h24v24H0V0Z"/><g fill="#141B34" fill-rule="evenodd"><path d="M6 13.25h-.052c-.898 0-1.648 0-2.242.08-.628.084-1.195.27-1.65.725-.456.456-.642 1.023-.726 1.65-.08.595-.08 1.344-.08 2.243v.104c0 .898 0 1.648.08 2.242.084.628.27 1.195.725 1.65.456.456 1.023.642 1.65.726.595.08 1.345.08 2.243.08h12.104c.898 0 1.648 0 2.242-.08.628-.084 1.195-.27 1.65-.726.456-.455.642-1.022.726-1.65.08-.594.08-1.343.08-2.242v-.104c0-.899 0-1.648-.08-2.243-.084-.627-.27-1.194-.726-1.65-.455-.455-1.022-.64-1.65-.725-.594-.08-1.344-.08-2.242-.08H6Zm-2.884 1.866c.13-.13.328-.237.79-.3.482-.064 1.13-.066 2.094-.066h12c.964 0 1.612.002 2.095.066.461.063.659.17.789.3.13.13.237.328.3.79.064.482.066 1.13.066 2.094s-.002 1.612-.067 2.095c-.062.461-.169.659-.3.789-.13.13-.327.237-.788.3-.483.064-1.131.066-2.095.066H6c-.964 0-1.612-.002-2.095-.067-.461-.062-.659-.169-.789-.3-.13-.13-.237-.327-.3-.788-.064-.483-.066-1.131-.066-2.095 0-.964.002-1.612.067-2.095.062-.461.169-.659.3-.789Z"/><path d="M9 5.25a.75.75 0 0 1 .75.75v8a.75.75 0 0 1-1.5 0V6A.75.75 0 0 1 9 5.25ZM6 17a1 1 0 1 0 0 2h.009a1 1 0 1 0 0-2h-.01Zm3.995 0a1 1 0 1 0 0 2h.01a1 1 0 1 0 0-2h-.01Zm3.996 0a1 1 0 1 0 0 2H14a1 1 0 1 0 0-2h-.01ZM4.068 2.474a.75.75 0 0 0-1.162-.948C1.869 2.795 1.25 4.335 1.25 6.006c0 1.665.615 3.2 1.646 4.467a.75.75 0 0 0 1.164-.946c-.84-1.031-1.31-2.24-1.31-3.522 0-1.286.474-2.498 1.318-3.53Zm2.568 1.749a.75.75 0 1 0-1.272-.794 4.845 4.845 0 0 0-.753 2.576c0 .93.272 1.803.745 2.565a.75.75 0 1 0 1.275-.79 3.344 3.344 0 0 1-.52-1.775c0-.632.185-1.236.525-1.782Z"/><path d="M7.996 5.997a1 1 0 0 1 1-1h.006a1 1 0 0 1 0 2h-.006a1 1 0 0 1-1-1Z"/></g></g></svg>