<svg xmlns="http://www.w3.org/2000/svg" width="21.5" height="15.5"><path fill="none" d="M0 0h21.5v15.5H0V0Z"/><path fill="#141B34" fill-rule="evenodd" d="M3.75 0h-.057c-.81 0-1.497 0-2.016.072C1.153.145.555.322.223.897c-.052.09-.096.185-.132.282-.226.614.008 1.19.276 1.65.274.47.715 1.034 1.237 1.705l.746.958c.172.22.35.452.523.618.038.037.08.076.128.113v8.527a.75.75 0 0 0 1.5 0V6.223c.047-.037.09-.076.127-.113.173-.166.35-.397.523-.618l.746-.958c.522-.671.963-1.235 1.237-1.705.268-.46.502-1.036.276-1.65a1.827 1.827 0 0 0-.132-.282C6.947.322 6.348.145 5.825.072 5.305 0 4.618 0 3.808 0H3.75ZM1.885 1.558c-.248.035-.34.08-.366.097a.327.327 0 0 0-.017.036c0 .029.017.135.162.383.21.361.574.83 1.125 1.538l.746.958c.086.11.155.2.217.275l.216-.275.746-.958c.55-.707.914-1.177 1.125-1.538C5.983 1.826 6 1.72 6 1.69a.328.328 0 0 0-.016-.036c-.027-.018-.118-.062-.367-.097-.403-.056-.983-.058-1.866-.058-.884 0-1.464.002-1.867.058Zm-.367 1.097c-.063-.027.204-.387.991-.999-.534.72-.927 1.026-.99.999Zm5.46 0c-.064.027-.458-.279-.991-.999.787.612 1.054.972.99.999ZM2.34 1.684c.286.022.292.378-.839.998-.012-.711.554-1.021.84-.998Zm3.82 0c.286-.023.851.287.84.998-1.132-.62-1.126-.976-.84-.998ZM12.5 6.75a.75.75 0 0 0-1.5 0v8a.75.75 0 0 0 1.5 0v-8Zm-4 2a.75.75 0 0 0-1.5 0v6a.75.75 0 0 0 1.5 0v-6ZM15.75 14a.75.75 0 0 0 0 1.5h1a.75.75 0 0 0 0-1.5h-1Zm4 0a.75.75 0 0 0 0 1.5h1a.75.75 0 0 0 0-1.5h-1Z"/></svg>