<svg xmlns="http://www.w3.org/2000/svg" width="19.5" height="6.5"><path fill="none" d="M0 0h19.5v6.5H0V0Z"/><path fill="#141B34" fill-rule="evenodd" d="M2.75 0h-.045c-.433 0-.83 0-1.152.043-.356.048-.731.16-1.04.47-.31.309-.422.684-.47 1.04C0 1.876 0 2.273 0 2.705v1.09c0 .433 0 .83.043 1.152.048.356.16.731.47 1.04.309.31.684.422 1.04.47.323.043.72.043 1.152.043h.09c.433 0 .83 0 1.152-.043.356-.048.731-.16 1.04-.47.31-.309.422-.684.47-1.04.043-.323.043-.72.043-1.152v-1.09c0-.433 0-.83-.043-1.152-.048-.356-.16-.731-.47-1.04-.309-.31-.684-.422-1.04-.47C3.624 0 3.227 0 2.795 0H2.75Zm-.177 1.574-.295.466-.09.148-.615.385.572-.428.427-.572Zm-1.001.002.001-.003.003-.001a.705.705 0 0 1 .177-.042c.21-.028.504-.03.997-.03s.787.002.997.03a.705.705 0 0 1 .177.042l.003.001.001.003a.706.706 0 0 1 .042.177c.028.21.03.504.03.997v1c0 .493-.002.787-.03.997a.706.706 0 0 1-.042.177l-.001.003-.003.001a.706.706 0 0 1-.177.042c-.21.028-.504.03-.997.03s-.787-.002-.997-.03a.706.706 0 0 1-.177-.042l-.003-.001-.001-.003a.705.705 0 0 1-.042-.177c-.028-.21-.03-.504-.03-.997v-1c0-.493.002-.787.03-.997a.705.705 0 0 1 .042-.177ZM4.42 5.458l.014-.023.491-.509-.265.322-.19.237-.224.176-.32.265.494-.468Zm.506-2.885-1-1 .432.35.568.65Zm-3.123-.222-.23.222 1-1-.77.778ZM8.75 5a.75.75 0 0 0 0 1.5h3a.75.75 0 0 0 0-1.5h-3Zm7 0a.75.75 0 0 0 0 1.5h3a.75.75 0 0 0 0-1.5h-3Z"/></svg>