<svg xmlns="http://www.w3.org/2000/svg" width="24" height="24"><g clip-path="url(#b)"><path fill="none" d="M0 0h24v24H0V0Z"/><g fill="#141B34" fill-rule="evenodd"><path d="M8.014 6.75a.75.75 0 0 0-.028-1.5c-1.587.03-2.84.145-3.716 1.037-.563.573-.802 1.292-.913 2.136-.107.812-.107 1.843-.107 3.118v4.91c0 1.275 0 2.306.107 3.118.111.844.35 1.563.913 2.136.565.575 1.276.821 2.11.936.8.109 1.815.109 3.063.109h.114c1.248 0 2.263 0 3.062-.11.835-.114 1.546-.36 2.11-.935.564-.573.803-1.292.914-2.136.107-.812.107-1.844.107-3.12v-2.953a.75.75 0 1 0-1.5 0v2.901c0 1.342-.002 2.274-.094 2.976-.09.682-.254 1.034-.497 1.281-.24.245-.58.41-1.243.5-.686.094-1.598.096-2.916.096-1.318 0-2.23-.002-2.916-.096-.663-.09-1.003-.255-1.243-.5-.243-.247-.407-.599-.497-1.281-.092-.702-.094-1.634-.094-2.976v-4.802c0-1.342.002-2.274.094-2.976.09-.682.254-1.034.497-1.281.389-.396 1.006-.558 2.673-.588Z"/><path d="M8.5 19a1 1 0 0 1 1-1h.009a1 1 0 1 1 0 2H9.5a1 1 0 0 1-1-1Zm6.493-17.75c-2.034 0-3.912.751-5.466 2.015a.75.75 0 0 0 .946 1.164c1.318-1.072 2.87-1.679 4.52-1.679 1.656 0 3.212.61 4.533 1.69a.75.75 0 1 0 .948-1.163c-1.556-1.271-3.44-2.027-5.48-2.027Zm0 4.2a5.86 5.86 0 0 0-3.107.905.75.75 0 1 0 .79 1.275 4.367 4.367 0 0 1 2.317-.68 4.37 4.37 0 0 1 2.328.686.75.75 0 1 0 .794-1.272 5.869 5.869 0 0 0-3.122-.913ZM14 10a1 1 0 0 1 1-1h.006a1 1 0 0 1 0 2H15a1 1 0 0 1-1-1Z"/></g></g></svg>