<svg xmlns="http://www.w3.org/2000/svg" width="24" height="24"><g clip-path="url(#b)"><path fill="none" d="M0 0h24v24H0V0Z"/><g fill="#141B34" fill-rule="evenodd"><path d="M11 18a1 1 0 0 1 1-1h.012a1 1 0 1 1 0 2H12a1 1 0 0 1-1-1Zm5.28-3.53c-2.293-2.293-6.267-2.293-8.56 0a.75.75 0 1 0 1.06 1.06c1.707-1.707 4.733-1.707 6.44 0a.75.75 0 1 0 1.06-1.06Zm-2.126-5.505c-3.107-.653-6.408.187-9.134 2.459a.75.75 0 0 0 .96 1.152c2.401-2 5.24-2.695 7.866-2.143a.75.75 0 0 0 .308-1.468Zm4.596 2.26a.75.75 0 0 0-.962 1.152c.072.06.144.122.215.185a.75.75 0 0 0 .994-1.124 11.76 11.76 0 0 0-.247-.212ZM13.057 4.29c-3.98-.302-7.951 1.106-11.54 4.137a.75.75 0 1 0 .967 1.146c3.341-2.822 6.935-4.055 10.46-3.787a.75.75 0 1 0 .113-1.496Z"/><path d="M16.53 4.47a.75.75 0 1 0-1.06 1.06L17.94 8l-2.47 2.47a.75.75 0 0 0 1.06 1.06L19 9.06l2.47 2.47a.75.75 0 1 0 1.06-1.06L20.06 8l2.47-2.47a.75.75 0 0 0-1.06-1.06L19 6.94l-2.47-2.47Z"/></g></g></svg>