<svg xmlns="http://www.w3.org/2000/svg" width="24" height="24"><g clip-path="url(#b)"><path fill="none" d="M0 0h24v24H0V0Z"/><g fill="#141B34" fill-rule="evenodd"><path d="M12 1.25c-5.275 0-9.75 4.36-9.75 9.676 0 2.722 1.152 4.998 2.767 6.877 1.608 1.87 3.701 3.378 5.661 4.591l.013.008.013.008a2.636 2.636 0 0 0 2.592 0l.011-.007.011-.007c1.968-1.203 4.061-2.716 5.669-4.592 1.613-1.883 2.763-4.165 2.763-6.878 0-5.316-4.474-9.676-9.75-9.676Zm-8.25 9.676c0-4.47 3.784-8.176 8.25-8.176s8.25 3.706 8.25 8.176c0 2.257-.949 4.205-2.402 5.902-1.457 1.7-3.394 3.114-5.3 4.281a1.136 1.136 0 0 1-1.094.001c-1.905-1.18-3.842-2.59-5.3-4.285-1.454-1.692-2.404-3.634-2.404-5.9Zm8.245-3.676c-1.666 0-3.202.615-4.468 1.646a.75.75 0 1 0 .946 1.164c1.031-.84 2.24-1.31 3.522-1.31 1.286 0 2.498.474 3.53 1.318a.75.75 0 1 0 .95-1.162c-1.27-1.037-2.81-1.656-4.48-1.656Zm0 3.36a4.84 4.84 0 0 0-2.565.746.75.75 0 0 0 .79 1.275 3.343 3.343 0 0 1 1.775-.52c.632 0 1.236.185 1.782.525a.75.75 0 0 0 .794-1.272 4.845 4.845 0 0 0-2.576-.753Z"/><path d="M11 15a1 1 0 0 1 1-1h.006a1 1 0 1 1 0 2H12a1 1 0 0 1-1-1Z"/></g></g></svg>