<svg xmlns="http://www.w3.org/2000/svg" width="24" height="24"><g clip-path="url(#b)"><path fill="none" d="M0 0h24v24H0V0Z"/><g fill="#141B34" fill-rule="evenodd"><path d="M12 1.25C6.063 1.25 1.25 6.063 1.25 12S6.063 22.75 12 22.75 22.75 17.937 22.75 12 17.937 1.25 12 1.25ZM2.75 12a9.25 9.25 0 1 1 18.5 0 9.25 9.25 0 0 1-18.5 0Z"/><path d="M11.995 8.25A7.534 7.534 0 0 0 7.56 9.706a.75.75 0 1 0 .878 1.215 6.034 6.034 0 0 1 3.556-1.171c1.31 0 2.533.43 3.564 1.178a.75.75 0 1 0 .882-1.213 7.535 7.535 0 0 0-4.446-1.465Zm0 3.432c-.912 0-1.773.237-2.532.656a.75.75 0 0 0 .724 1.313 3.725 3.725 0 0 1 1.808-.47c.65 0 1.266.17 1.816.475a.75.75 0 0 0 .727-1.312 5.227 5.227 0 0 0-2.543-.662ZM11 16a1 1 0 0 1 1-1h.006a1 1 0 0 1 0 2H12a1 1 0 0 1-1-1Z"/></g></g></svg>