<svg xmlns="http://www.w3.org/2000/svg" width="24" height="24"><g clip-path="url(#b)"><path fill="none" d="M0 0h24v24H0V0Z"/><path fill="#141B34" fill-rule="evenodd" d="M11 20a1 1 0 0 1 1-1h.012a1 1 0 1 1 0 2H12a1 1 0 0 1-1-1ZM22.402 4.633a.75.75 0 0 0-.804-1.266c-1.372.87-2.686 2.328-3.631 3.516-.361.454-.676.878-.929 1.231-.343-.466-.684-.78-.997-.989a2.381 2.381 0 0 0-.663-.316 1.644 1.644 0 0 0-.366-.06h-.01L15 7.5v-.75a.75.75 0 0 0-.05 1.498l.016.004a.9.9 0 0 1 .243.122c.243.162.665.55 1.12 1.461a.75.75 0 0 0 1.304.067l.001-.001a1.203 1.203 0 0 1 .024-.037l.079-.12a29.031 29.031 0 0 1 1.404-1.926c.924-1.162 2.11-2.454 3.26-3.184ZM12 6.25c-3.626 0-7.214 1.416-10.484 4.177a.75.75 0 1 0 .968 1.146C5.53 9.001 8.784 7.75 12 7.75a.75.75 0 0 0 0-1.5Zm6.997 7.188c-4.06-3.591-9.708-3.572-13.977-.014a.75.75 0 1 0 .96 1.152c3.73-3.109 8.547-3.09 12.023-.014a.75.75 0 1 0 .994-1.124ZM16.28 16.47c-2.293-2.293-6.267-2.293-8.56 0a.75.75 0 1 0 1.06 1.06c1.707-1.707 4.733-1.707 6.44 0a.75.75 0 1 0 1.06-1.06Z"/></g></svg>