<svg xmlns="http://www.w3.org/2000/svg" width="24" height="24"><g clip-path="url(#b)"><path fill="none" d="M0 0h24v24H0V0Z"/><path fill="#141B34" fill-rule="evenodd" d="M10.005 16.681a.75.75 0 0 0-.629-1.362 5.74 5.74 0 0 0-1.656 1.15.75.75 0 1 0 1.06 1.061c.357-.357.773-.64 1.225-.849Zm4.619-1.362a.75.75 0 0 0-.63 1.362c.453.209.869.492 1.226.85a.75.75 0 1 0 1.06-1.061 5.74 5.74 0 0 0-1.656-1.15Zm.607-4.033a.75.75 0 0 0-.462 1.428 9.283 9.283 0 0 1 3.239 1.852.75.75 0 0 0 .985-1.132 10.784 10.784 0 0 0-3.762-2.148Zm-5.994 1.472a.75.75 0 0 0-.474-1.424 11.754 11.754 0 0 0-3.739 2.086.75.75 0 1 0 .952 1.16 10.254 10.254 0 0 1 3.26-1.822ZM8.221 8.217a.75.75 0 1 0-.442-1.433c-2.185.674-4.292 1.979-6.263 3.643a.75.75 0 0 0 .968 1.146C4.358 9.991 6.29 8.813 8.22 8.217Zm8-1.433a.75.75 0 1 0-.442 1.433c1.931.596 3.863 1.774 5.737 3.356a.75.75 0 0 0 .968-1.146c-1.971-1.664-4.079-2.97-6.263-3.643ZM11 20a1 1 0 0 1 1-1h.012a1 1 0 0 1 0 2H12a1 1 0 0 1-1-1Zm2.905-16.352c-1.13-.53-2.68-.53-3.81 0-.714.336-.919 1.087-.821 1.668l1.986 11.808a.75.75 0 0 0 1.48 0l1.986-11.808c.098-.581-.107-1.333-.82-1.668Zm-3.154 1.364.002-.016c.72-.328 1.774-.328 2.493 0l.003.016a.206.206 0 0 1-.002.055L12 12.48l-1.247-7.412a.207.207 0 0 1-.002-.055Z"/></g></svg>