<svg xmlns="http://www.w3.org/2000/svg" width="21.5" height="18.5"><path fill="none" d="M0 0h21.5v18.5H0V0Z"/><path fill="#141B34" fill-rule="evenodd" d="M21.234 4.177C17.964 1.416 14.376 0 10.75 0 7.124 0 3.536 1.416.266 4.177a.75.75 0 1 0 .968 1.146C4.28 2.751 7.534 1.5 10.75 1.5s6.47 1.25 9.516 3.823a.75.75 0 0 0 .968-1.146Zm-6.624 1.93c-1.825-.999-3.71-1.33-5.583-.96-1.862.37-3.644 1.422-5.305 3.07a.75.75 0 0 0 1.056 1.065C6.29 7.782 7.82 6.917 9.32 6.62c1.49-.295 3.018-.045 4.571.804a.75.75 0 1 0 .72-1.316ZM17.25 8a2.71 2.71 0 0 0-2.719 2.702v.855a2.493 2.493 0 0 0-1.235 1.114c-.172.32-.237.657-.267 1.008C13 14.011 13 14.42 13 14.9v.058c0 .48 0 .889.029 1.223.03.35.095.687.267 1.007.234.433.592.788 1.028 1.019.32.17.658.234 1.01.264.335.028.745.028 1.23.028h1.372c.485 0 .895 0 1.23-.028.352-.03.69-.095 1.01-.264a2.494 2.494 0 0 0 1.028-1.02c.172-.319.237-.656.267-1.006.029-.334.029-.742.029-1.223V14.9c0-.481 0-.889-.029-1.223-.03-.35-.095-.687-.267-1.007a2.493 2.493 0 0 0-1.028-1.019c-.32-.17-.658-.234-1.01-.264-.334-.028-.742-.028-1.225-.028h-1.382c-.187 0-.363 0-.528.002v-.66c0-.658.54-1.202 1.219-1.202.305 0 .581.11.794.29a.75.75 0 0 0 .972-1.143A2.72 2.72 0 0 0 17.25 8Zm-5.34 2.125c-1.82-.396-3.747.152-5.19 1.595a.75.75 0 1 0 1.06 1.06c1.093-1.092 2.505-1.473 3.81-1.19a.75.75 0 0 0 .32-1.465Zm3.116 2.852c.067-.035.178-.072.433-.094.265-.022.611-.023 1.135-.023h1.312c.524 0 .87 0 1.135.023.255.022.366.06.433.095a.994.994 0 0 1 .41.405c.034.064.071.172.093.424.022.261.023.604.023 1.123 0 .52 0 .862-.023 1.123-.022.252-.06.36-.094.424a.994.994 0 0 1-.41.405c-.066.036-.177.073-.432.095-.265.022-.611.023-1.135.023h-1.312c-.524 0-.87 0-1.135-.023-.255-.021-.366-.06-.433-.095a.994.994 0 0 1-.41-.405c-.034-.064-.071-.172-.093-.424a14.699 14.699 0 0 1-.023-1.123c0-.52 0-.862.023-1.123.022-.252.06-.36.094-.424a.994.994 0 0 1 .41-.405Z"/></svg>