<svg xmlns="http://www.w3.org/2000/svg" width="21.5" height="19.5"><path fill="none" d="M0 0h21.5v19.5H0V0Z"/><path fill="#141B34" fill-rule="evenodd" d="m19.867 8.924-2.36 3.22-.151.244-.02-.012-2.805 3.827c-.717.977-1.302 1.778-1.837 2.324-.545.556-1.156.973-1.944.973s-1.399-.416-1.944-.973c-.535-.546-1.12-1.347-1.837-2.325l-2.805-3.826-.02.012-.15-.243-2.361-3.22C1.107 8.206.659 7.6.376 7.048.075 6.463-.076 5.877.038 5.202.26 3.874 1.234 3.288 2.418 2.51A15.11 15.11 0 0 1 10.75 0c3.058 0 5.913.92 8.332 2.51 1.184.778 2.157 1.364 2.38 2.692.114.675-.036 1.26-.338 1.847-.283.551-.731 1.158-1.256 1.875ZM3.242 3.764A13.61 13.61 0 0 1 10.75 1.5c2.75 0 5.322.826 7.509 2.264 1.34.88 1.63 1.123 1.724 1.687.046.271.005.526-.193.912-.151.295-.373.626-.683 1.057-5.243-3.227-11.47-3.227-16.714 0-.31-.43-.532-.762-.683-1.057-.198-.386-.239-.641-.193-.912.095-.564.384-.807 1.725-1.687Zm.039 4.871c4.705-2.847 10.233-2.847 14.938 0l-1.314 1.793a13.979 13.979 0 0 0-12.31 0L3.281 8.635Zm2.217 3.024a12.476 12.476 0 0 1 10.504 0l-1.551 2.116a9.22 9.22 0 0 0-7.401 0L5.498 11.66Zm2.466 3.362a7.706 7.706 0 0 1 5.573 0l-.216.294c-.745 1.017-1.257 1.711-1.698 2.162-.432.441-.678.523-.873.523-.195 0-.44-.082-.872-.523-.442-.45-.954-1.145-1.699-2.162l-.215-.293Z"/></svg>