<svg xmlns="http://www.w3.org/2000/svg" width="21.5" height="17.5"><path fill="none" d="M0 0h21.5v17.5H0V0Z"/><path fill="#141B34" fill-rule="evenodd" d="M21.234 4.177C17.964 1.416 14.376 0 10.75 0 7.124 0 3.536 1.416.266 4.177a.75.75 0 1 0 .968 1.146C4.28 2.751 7.534 1.5 10.75 1.5s6.47 1.25 9.516 3.823a.75.75 0 0 0 .968-1.146Zm-3.438 5.059C15.79 7.106 13.349 6 10.837 6c-2.509 0-5 1.103-7.117 3.22a.75.75 0 1 0 1.06 1.06C6.663 8.397 8.788 7.5 10.837 7.5c2.046 0 4.106.894 5.867 2.764a.75.75 0 1 0 1.092-1.028ZM8.781 11.22a.75.75 0 0 0-1.061 1.06l1.97 1.97-1.97 1.97a.75.75 0 1 0 1.06 1.06l1.97-1.97 1.97 1.97a.75.75 0 0 0 1.06-1.06l-1.97-1.97 1.97-1.97a.75.75 0 1 0-1.06-1.06l-1.97 1.97-1.97-1.97Z"/></svg>