<svg xmlns="http://www.w3.org/2000/svg" width="21.5" height="18.5"><path fill="none" d="M0 0h21.5v18.5H0V0Z"/><path fill="#141B34" fill-rule="evenodd" d="M10.75 0a15.72 15.72 0 0 0-8.316 2.367c-.608.377-1.152.711-1.55 1.077-.439.402-.732.865-.845 1.497-.118.66.04 1.232.345 1.793.286.525.737 1.102 1.261 1.777l5.337 6.874c.716.923 1.303 1.682 1.84 2.199.55.53 1.156.916 1.928.916s1.378-.386 1.929-.916c.536-.517 1.123-1.276 1.84-2.199l5.336-6.874c.524-.675.975-1.252 1.26-1.777.306-.561.464-1.132.346-1.793-.112-.632-.406-1.095-.844-1.497-.399-.366-.943-.7-1.551-1.077A15.719 15.719 0 0 0 10.75 0ZM3.225 3.641A14.219 14.219 0 0 1 10.75 1.5c2.76 0 5.337.783 7.525 2.141.654.407 1.057.66 1.328.909.233.213.335.392.381.654.042.232.009.455-.186.813-.214.393-.573.86-1.128 1.574l-5.337 6.874c-.745.96-1.255 1.614-1.695 2.039-.427.41-.677.496-.888.496-.21 0-.461-.085-.887-.496-.44-.425-.95-1.079-1.696-2.039L2.83 7.591c-.555-.715-.914-1.18-1.128-1.574-.195-.358-.228-.58-.186-.813.046-.262.148-.44.38-.654.273-.25.675-.502 1.33-.909Z"/></svg>