<svg xmlns="http://www.w3.org/2000/svg" width="21.5" height="19.5"><path fill="none" d="M0 0h21.5v19.5H0V0Z"/><path fill="#141B34" fill-rule="evenodd" d="M3.242 3.764A13.61 13.61 0 0 1 10.75 1.5c2.75 0 5.322.826 7.509 2.264 1.34.88 1.63 1.123 1.724 1.687.046.271.005.526-.193.912-.216.42-.576.916-1.128 1.668l-1.507 1.96a.75.75 0 0 0 1.19.915l1.512-1.968.006-.007.005-.007c.525-.717.973-1.324 1.256-1.875.302-.586.452-1.172.338-1.847-.223-1.328-1.196-1.914-2.38-2.692A15.11 15.11 0 0 0 10.75 0C7.692 0 4.837.92 2.418 2.51 1.234 3.288.26 3.874.038 5.202c-.114.675.037 1.26.338 1.847.283.551.731 1.158 1.257 1.875l5.336 7.279c.717.977 1.302 1.778 1.837 2.324.545.556 1.156.973 1.944.973a.75.75 0 0 0 0-1.5c-.195 0-.44-.082-.872-.523-.442-.45-.954-1.145-1.699-2.162L2.842 8.038c-.554-.755-.915-1.253-1.132-1.674-.198-.386-.239-.641-.193-.912.095-.564.384-.807 1.725-1.687ZM14.28 12.22a.75.75 0 1 0-1.061 1.06l2.47 2.47-2.47 2.47a.75.75 0 1 0 1.06 1.06l2.47-2.47 2.47 2.47a.75.75 0 1 0 1.06-1.06l-2.47-2.47 2.47-2.47a.75.75 0 1 0-1.06-1.06l-2.47 2.47-2.47-2.47Z"/></svg>