<svg xmlns="http://www.w3.org/2000/svg" width="24" height="24"><g clip-path="url(#b)"><path fill="none" d="M0 0h24v24H0V0Z"/><g fill="#141B34" fill-rule="evenodd"><path d="M11 18.5a1 1 0 0 1 1-1h.012a1 1 0 1 1 0 2H12a1 1 0 0 1-1-1Zm5.28-3.53c-2.293-2.293-6.267-2.293-8.56 0a.75.75 0 1 0 1.06 1.06c1.707-1.707 4.733-1.707 6.44 0a.75.75 0 1 0 1.06-1.06Z"/><path d="M18.997 11.938c-4.06-3.591-9.708-3.572-13.977-.014a.75.75 0 0 0 .96 1.152c3.73-3.109 8.547-3.09 12.023-.014a.75.75 0 0 0 .994-1.124Z"/><path d="M22.484 8.927C19.214 6.166 15.626 4.75 12 4.75c-3.626 0-7.214 1.416-10.484 4.177a.75.75 0 1 0 .968 1.146C5.53 7.501 8.784 6.25 12 6.25s6.47 1.25 9.516 3.823a.75.75 0 0 0 .968-1.146Z"/></g></g></svg>