<svg xmlns="http://www.w3.org/2000/svg" width="24" height="24"><g clip-path="url(#b)"><path fill="none" d="M0 0h24v24H0V0Z"/><g fill="#141B34" fill-rule="evenodd"><path d="M11 18.5a1 1 0 0 1 1-1h.012a1 1 0 1 1 0 2H12a1 1 0 0 1-1-1Z"/><path d="M2.53 1.47a.75.75 0 0 0-1.06 1.06l3.74 3.741A14.01 14.01 0 0 0 1.47 8.97a.75.75 0 0 0 1.06 1.06c1.268-1.267 2.502-2.033 3.804-2.635L8.57 9.63c-1.224.437-2.397 1.137-3.6 2.34a.75.75 0 1 0 1.06 1.06c1.261-1.26 2.445-1.858 3.738-2.201l2.423 2.422A5.776 5.776 0 0 0 7.97 14.97a.75.75 0 1 0 1.06 1.06c1.388-1.387 3.406-1.652 5.128-.77.025.013.05.024.075.034l7.237 7.236a.75.75 0 1 0 1.06-1.06L10.543 9.482a.759.759 0 0 0-.024-.024L7.041 5.98a.73.73 0 0 0-.02-.02L2.53 1.47Zm19.954 7.457C18.412 5.488 13.853 4.143 9.359 5a.75.75 0 0 0 .282 1.474c3.979-.76 8.09.402 11.875 3.598a.75.75 0 0 0 .968-1.146Zm-8.87.332a.75.75 0 0 0-.228 1.482c1.613.248 3.207 1.073 4.617 2.32a.75.75 0 0 0 .994-1.123c-1.575-1.393-3.426-2.379-5.383-2.68Z"/></g></g></svg>