<svg xmlns="http://www.w3.org/2000/svg" width="21.5" height="20.5"><path fill="none" d="M0 0h21.5v20.5H0V0Z"/><path fill="#141B34" fill-rule="evenodd" d="m8.186 15.825-.48-.7c2.168-.92 4.578-.825 6.695.289a.75.75 0 0 0 .958-.226L19.87 8.92l.001-.001c.524-.715.97-1.32 1.253-1.87.302-.586.452-1.172.338-1.847-.223-1.328-1.196-1.914-2.38-2.692A15.11 15.11 0 0 0 10.75 0C7.692 0 4.837.92 2.418 2.51 1.234 3.288.26 3.874.038 5.202c-.114.675.037 1.26.338 1.847.282.549.727 1.153 1.25 1.866l5.33 7.768a.643.643 0 0 0 .013.02c.717.977 1.302 1.778 1.837 2.324.545.556 1.156.973 1.944.973a.75.75 0 0 0 0-1.5c-.195 0-.44-.082-.872-.523-.44-.45-.95-1.141-1.692-2.152ZM3.242 3.764A13.61 13.61 0 0 1 10.75 1.5c2.75 0 5.322.826 7.509 2.264 1.34.88 1.63 1.123 1.724 1.687.046.271.005.526-.193.912-.151.295-.373.626-.683 1.057-5.243-3.227-11.47-3.227-16.714 0-.31-.43-.532-.762-.683-1.057-.198-.386-.239-.641-.193-.912.095-.564.384-.807 1.725-1.687Zm.02 4.883c4.71-2.86 10.25-2.863 14.963-.008l-1.296 1.8a13.98 13.98 0 0 0-12.418.03l-1.25-1.822Zm2.107 3.073a12.476 12.476 0 0 1 10.67-.044l-1.53 2.125a9.226 9.226 0 0 0-7.666.067L5.37 11.72ZM21 14.457a.75.75 0 0 0-.5-1.414c-.835.296-1.647.866-2.373 1.503-.734.643-1.423 1.393-2.012 2.099-.53.635-.986 1.243-1.327 1.72-.343-.466-.684-.78-.997-.989a2.382 2.382 0 0 0-.663-.316 1.642 1.642 0 0 0-.365-.06h-.011c-.001 0-.002 0-.002.75V17a.75.75 0 0 0-.05 1.498l.016.004a.9.9 0 0 1 .243.122c.243.162.665.55 1.12 1.461a.75.75 0 0 0 1.304.067l.002-.002.005-.009.025-.039.101-.153a28.262 28.262 0 0 1 1.75-2.344c.56-.67 1.194-1.357 1.85-1.932.663-.582 1.308-1.012 1.884-1.216Z"/></svg>