<svg xmlns="http://www.w3.org/2000/svg" width="24" height="24"><g clip-path="url(#b)"><path fill="none" d="M0 0h24v24H0V0Z"/><g fill="#141B34" fill-rule="evenodd"><path d="M11.995 10.25c-1.65 0-3.18.567-4.447 1.525a.75.75 0 0 0 .904 1.197c1.03-.779 2.246-1.222 3.543-1.222 1.3 0 2.52.446 3.552 1.23a.75.75 0 0 0 .906-1.196c-1.27-.964-2.803-1.534-4.458-1.534Zm0 3.124c-.919 0-1.784.25-2.545.688a.75.75 0 1 0 .75 1.3 3.573 3.573 0 0 1 1.795-.488c.643 0 1.255.175 1.803.493a.75.75 0 1 0 .752-1.298 5.075 5.075 0 0 0-2.555-.695ZM11 17.5a1 1 0 0 1 1-1h.006a1 1 0 0 1 0 2H12a1 1 0 0 1-1-1ZM6 6a1 1 0 0 1 1-1h.006a1 1 0 1 1 0 2H7a1 1 0 0 1-1-1Zm4 0a1 1 0 0 1 1-1h.006a1 1 0 1 1 0 2H11a1 1 0 0 1-1-1Z"/><path d="M12 1.75h-.057c-2.19 0-3.912 0-5.255.18-1.377.186-2.469.573-3.327 1.43-.858.86-1.245 1.951-1.43 3.328-.181 1.343-.181 3.064-.181 5.255v.114c0 2.19 0 3.912.18 5.255.186 1.377.573 2.469 1.43 3.327.86.858 1.951 1.245 3.328 1.43 1.343.181 3.064.181 5.255.181h.114c2.191 0 3.912 0 5.255-.18 1.377-.186 2.469-.573 3.327-1.43.858-.86 1.245-1.951 1.43-3.328.181-1.343.181-3.064.181-5.255v-.114c0-2.191 0-3.912-.18-5.255-.186-1.377-.573-2.469-1.43-3.327-.86-.858-1.951-1.245-3.328-1.43-1.343-.181-3.064-.181-5.255-.181H12ZM4.422 4.422c.533-.533 1.256-.842 2.466-1.005C8.12 3.252 9.74 3.25 12 3.25c2.26 0 3.88.002 5.112.167 1.21.163 1.933.472 2.466 1.005.534.533.842 1.256 1.005 2.466.165 1.232.167 2.852.167 5.112 0 2.26-.002 3.88-.167 5.112-.163 1.21-.471 1.933-1.005 2.466-.533.534-1.256.842-2.466 1.005-1.232.165-2.852.167-5.112.167-2.26 0-3.88-.002-5.112-.167-1.21-.163-1.933-.471-2.466-1.005-.533-.533-.842-1.256-1.005-2.466C3.252 15.88 3.25 14.26 3.25 12c0-2.26.002-3.88.167-5.112.163-1.21.472-1.933 1.005-2.466Z"/></g></g></svg>