<svg xmlns="http://www.w3.org/2000/svg" xmlns:xlink="http://www.w3.org/1999/xlink" width="0" height="0" style="display:none;"><symbol id="bfs-cellular-network-offline"><path fill="none" d="M0 0h21.5v21.5H0V0Z"></path><path fill="#141B34" fill-rule="evenodd" d="M1.28.22A.75.75 0 1 0 .22 1.28l1.367 1.368A9.05 9.05 0 0 0 0 7.75c0 2.022.68 3.897 1.832 5.448a.75.75 0 1 0 1.204-.896C2.062 10.992 1.5 9.428 1.5 7.75c0-1.456.423-2.826 1.17-4.019l1.798 1.797A5.527 5.527 0 0 0 4 7.75c0 1.281.445 2.466 1.194 3.453a.75.75 0 1 0 1.195-.906C5.819 9.545 5.5 8.673 5.5 7.75c0-.36.048-.71.14-1.049l4.36 4.36v7.689a.75.75 0 0 0 1.5 0v-6.19l8.72 8.72a.75.75 0 1 0 1.06-1.06l-9.996-9.997-.007-.007L1.28.22Zm18.388 2.082a.75.75 0 0 0-1.204.896C19.438 4.508 20 6.072 20 7.75c0 1.678-.562 3.243-1.536 4.552a.75.75 0 1 0 1.204.896C20.82 11.648 21.5 9.772 21.5 7.75c0-2.022-.68-3.897-1.832-5.448Zm-3.362 1.995a.75.75 0 1 0-1.195.906c.57.752.889 1.624.889 2.547s-.318 1.795-.889 2.547a.75.75 0 0 0 1.195.906c.75-.987 1.194-2.172 1.194-3.453 0-1.281-.445-2.466-1.194-3.453Zm-5.87 2.242A1.254 1.254 0 0 1 12 7.75c0 .11-.014.214-.04.313a.75.75 0 1 0 1.453.374 2.75 2.75 0 0 0-3.35-3.35.75.75 0 0 0 .374 1.452Z"></path></symbol><symbol id="bfs-cellular-network"><g clip-path="url(#b)"><path fill="none" d="M0 0h24v24H0V0Z"></path><path fill="#141B34" fill-rule="evenodd" d="M4.036 4.198a.75.75 0 1 0-1.204-.896C1.68 4.852 1 6.728 1 8.75c0 2.022.68 3.897 1.832 5.448a.75.75 0 1 0 1.204-.896C3.062 11.992 2.5 10.428 2.5 8.75c0-1.678.562-3.243 1.536-4.552Zm16.632-.896a.75.75 0 0 0-1.204.896C20.438 5.508 21 7.072 21 8.75c0 1.678-.562 3.243-1.536 4.552a.75.75 0 1 0 1.204.896c1.153-1.55 1.832-3.426 1.832-5.448 0-2.022-.68-3.897-1.832-5.448ZM7.388 6.203a.75.75 0 0 0-1.194-.906C5.444 6.284 5 7.469 5 8.75c0 1.281.445 2.466 1.194 3.453a.75.75 0 0 0 1.195-.906c-.57-.752-.889-1.624-.889-2.547s.318-1.795.889-2.547Zm9.918-.906a.75.75 0 1 0-1.195.906c.57.752.889 1.624.889 2.547s-.318 1.795-.889 2.547a.75.75 0 0 0 1.195.906c.75-.987 1.194-2.172 1.194-3.453 0-1.281-.445-2.466-1.194-3.453ZM11.75 6a2.75 2.75 0 0 0-.75 5.396v8.354a.75.75 0 0 0 1.5 0v-8.354A2.751 2.751 0 0 0 11.75 6ZM10.5 8.75a1.25 1.25 0 1 1 2.5 0 1.25 1.25 0 0 1-2.5 0Z"></path></g></symbol><symbol id="bfs-gps-disconnected"><path fill="none" d="M0 0h24v24H0V0Z"></path><g fill="#f0f0f0" fill-rule="evenodd"><path d="M16.53 1.47a.75.75 0 1 0-1.06 1.06L17.94 5l-2.47 2.47a.75.75 0 0 0 1.06 1.06L19 6.06l2.47 2.47a.75.75 0 1 0 1.06-1.06L20.06 5l2.47-2.47a.75.75 0 0 0-1.06-1.06L19 3.94l-2.47-2.47Zm-7 9.09a2.765 2.765 0 1 1 3.91 3.91l1.06 1.06A4.265 4.265 0 1 0 8.47 9.5l1.06 1.06Z"></path><path d="M6.845 7.027c-.348-.477-.662-.91-.962-1.208-.32-.318-.738-.596-1.3-.567-.522.027-.895.282-1.182.614-.252.29-.485.697-.729 1.114C.331 10.997.88 16.235 4.322 19.677c3.443 3.443 8.681 3.992 12.697 1.65.418-.243.824-.476 1.115-.728.332-.287.587-.66.614-1.182.029-.563-.249-.98-.567-1.3-.298-.3-.73-.614-1.208-.962-1.805-1.318-3.594-2.94-5.391-4.737-1.798-1.798-3.419-3.587-4.737-5.391Zm-2.18-.275a.088.088 0 0 0-.008-.003c-.008-.002-.035-.002-.123.1-.138.159-.292.418-.566.887a8.995 8.995 0 0 0 12.296 12.296c.47-.274.728-.428.887-.567.104-.089.101-.115.1-.123a.698.698 0 0 0-.134-.169c-.194-.195-.509-.428-1.029-.807-1.89-1.381-3.74-3.061-5.567-4.887-1.826-1.827-3.506-3.676-4.887-5.568-.38-.52-.612-.834-.807-1.027a.695.695 0 0 0-.163-.132Z"></path></g></symbol><symbol id="bfs-gps-signal-01"><path fill="none" d="M0 0h21.5v21.5H0V0Z"></path><path fill="#141B34" fill-rule="evenodd" d="M14.384.004a.75.75 0 1 0-.153 1.492c1.528.157 2.906.76 3.958 1.81 1.056 1.055 1.66 2.435 1.815 3.966a.75.75 0 0 0 1.492-.15c-.185-1.836-.919-3.551-2.247-4.877C17.925.924 16.215.192 14.384.004Zm-.463 3.51a.75.75 0 1 0-.342 1.46 3.92 3.92 0 0 1 1.9 1.038 3.909 3.909 0 0 1 1.042 1.908.75.75 0 0 0 1.461-.34 5.41 5.41 0 0 0-1.442-2.63 5.419 5.419 0 0 0-2.62-1.436ZM5.595 5.777c-.348-.477-.662-.91-.962-1.208-.32-.318-.737-.596-1.3-.567-.522.027-.895.282-1.182.614-.252.29-.485.697-.729 1.115-2.341 4.016-1.792 9.254 1.65 12.697 3.443 3.442 8.681 3.991 12.698 1.65.417-.244.823-.477 1.114-.729.332-.287.587-.66.614-1.182.029-.563-.249-.98-.567-1.3-.298-.3-.73-.614-1.208-.962a35.791 35.791 0 0 1-2.283-1.826A4.265 4.265 0 0 0 7.42 8.06a35.802 35.802 0 0 1-1.825-2.283Zm-2.18-.274a.085.085 0 0 0-.008-.004c-.008-.002-.035-.002-.123.1-.138.159-.292.418-.566.887a8.995 8.995 0 0 0 12.296 12.296c.47-.274.728-.428.888-.566.103-.09.1-.116.098-.124a.698.698 0 0 0-.134-.169c-.193-.195-.508-.427-1.027-.807-1.892-1.381-3.742-3.06-5.568-4.887-1.826-1.826-3.506-3.676-4.887-5.568-.38-.52-.612-.834-.807-1.027a.696.696 0 0 0-.163-.131ZM12.19 9.31a2.765 2.765 0 0 1 .13 3.77 65.857 65.857 0 0 1-1.988-1.912A65.847 65.847 0 0 1 8.42 9.18a2.765 2.765 0 0 1 3.77.13Z"></path></symbol><symbol id="bfs-gps-signal-02"><g clip-path="url(#b)"><path fill="none" d="M0 0h24v24H0V0Z"></path><path fill="#141B34" fill-rule="evenodd" d="M21.702 2.293a1 1 0 0 0-1.414 1.414l.005.005a1 1 0 1 0 1.414-1.414l-.005-.005ZM19.204 4.79a1 1 0 0 0-1.414 1.414l.005.006a1 1 0 0 0 1.414-1.414l-.005-.006Zm-2.497 2.498a1 1 0 1 0-1.414 1.414l.005.005a1 1 0 1 0 1.414-1.414l-.005-.005Zm-9.862-.261c-.348-.477-.661-.91-.962-1.208-.32-.318-.737-.596-1.3-.567-.522.027-.895.282-1.182.614-.252.29-.485.697-.729 1.114C.331 10.997.88 16.235 4.322 19.677c3.443 3.443 8.681 3.992 12.698 1.65.417-.243.823-.476 1.114-.728.332-.287.587-.66.614-1.182.029-.563-.249-.98-.567-1.3-.298-.3-.73-.614-1.208-.962a35.824 35.824 0 0 1-2.283-1.826A4.265 4.265 0 0 0 8.67 9.31a35.804 35.804 0 0 1-1.825-2.283Zm-2.18-.275a.083.083 0 0 0-.008-.003c-.008-.002-.035-.002-.123.1-.138.159-.292.418-.566.887a8.995 8.995 0 0 0 12.296 12.296c.47-.274.728-.428.888-.567.103-.089.1-.115.099-.123a.698.698 0 0 0-.134-.169c-.194-.195-.509-.427-1.028-.807-1.892-1.381-3.741-3.061-5.568-4.887-1.826-1.827-3.506-3.676-4.887-5.568-.38-.52-.612-.834-.807-1.027a.696.696 0 0 0-.163-.132Zm8.775 3.808a2.765 2.765 0 0 1 .13 3.77 65.95 65.95 0 0 1-1.988-1.912A65.894 65.894 0 0 1 9.67 10.43a2.765 2.765 0 0 1 3.77.13Z"></path></g></symbol><symbol id="bfs-headset-connected"><g clip-path="url(#b)"><path fill="none" d="M0 0h24v24H0V0Z"></path><g fill="#141B34" fill-rule="evenodd"><path d="M20.525 11.545a1.602 1.602 0 0 0-1.083-.287c-.21.021-.388.09-.537.162-.143.067-.305.16-.475.257-.294.167-.9.474-1.112 1.26-.069.253-.069.523-.068.802v4.522c0 .28 0 .55.068.803.212.785.818 1.092 1.112 1.259.17.097.332.19.475.258.15.07.327.14.537.161a1.602 1.602 0 0 0 1.474-.68c.097-.128.203-.29.318-.464.197-.299.524-.747.77-1.148.263-.432.52-.937.645-1.513a4.398 4.398 0 0 0 0-1.874c-.175-.8-.655-1.507-1.376-2.603-.043-.064-.176-.28-.263-.406a2.028 2.028 0 0 0-.485-.509Zm-.975 1.229a.672.672 0 0 1 .054-.024.11.11 0 0 1 .06.023l.008.008a1.1 1.1 0 0 1 .108.132c.034.048.068.101.108.166.038.06.085.136.132.207.788 1.195 1.062 1.634 1.164 2.098.088.404.088.828 0 1.232-.076.346-.238.688-.46 1.051-.242.394-.468.69-.742 1.106a8.22 8.22 0 0 1-.262.385.659.659 0 0 1-.06.071.11.11 0 0 1-.056.02.654.654 0 0 1-.054-.023 6.8 6.8 0 0 1-.378-.207 1.868 1.868 0 0 1-.322-.206.258.258 0 0 1-.084-.14c-.01-.035-.016-.088-.016-.477v-4.392c0-.389.006-.441.016-.476a.258.258 0 0 1 .084-.141 1.83 1.83 0 0 1 .322-.206c.19-.108.296-.168.378-.207Zm-7.554.476c-1.298 0-2.492.483-3.471 1.284a.75.75 0 0 0 .95 1.161c.744-.608 1.609-.945 2.52-.945.916 0 1.784.339 2.529.951a.75.75 0 0 0 .952-1.159c-.981-.806-2.178-1.292-3.48-1.292Zm0 3.018c-.736 0-1.425.217-2.024.591a.75.75 0 0 0 .793 1.273 2.305 2.305 0 0 1 1.23-.364c.436 0 .855.127 1.237.367a.75.75 0 1 0 .797-1.27 3.808 3.808 0 0 0-2.033-.597ZM11 20a1 1 0 0 1 1-1h.006a1 1 0 0 1 0 2H12a1 1 0 0 1-1-1Z"></path><path d="M4.75 10.875C4.75 6.951 7.985 3.75 12 3.75c4.015 0 7.25 3.201 7.25 7.125v1.875h1.5v-1.875C20.75 6.1 16.821 2.25 12 2.25S3.25 6.1 3.25 10.875v.89c-.223.23-.4.508-.523.696-.721 1.095-1.201 1.802-1.376 2.602a4.398 4.398 0 0 0 0 1.874c.126.576.382 1.08.646 1.512.245.402.572.85.769 1.149.138.21.335.512.593.741.291.26.69.454 1.199.403.21-.021.388-.09.537-.162.143-.068.305-.16.475-.257.23-.131.49-.27.69-.487.492-.534.49-1.203.49-1.601v-4.47c0-.398.002-1.067-.49-1.6-.2-.218-.46-.357-.69-.488-.17-.097-.332-.19-.475-.257a1.822 1.822 0 0 0-.345-.128v-.417Zm-.404 1.916a.281.281 0 0 1 .051-.04c.01.003.027.01.053.023.082.039.189.1.378.207.143.081.222.127.28.164a.463.463 0 0 1 .05.036c.026.028.049.066.066.154a2.6 2.6 0 0 1 .026.47v4.39a2.6 2.6 0 0 1-.026.47c-.017.088-.04.126-.067.154a.452.452 0 0 1-.049.036 6.204 6.204 0 0 1-.28.164 6.79 6.79 0 0 1-.378.207.674.674 0 0 1-.053.023.246.246 0 0 1-.041-.03 1.123 1.123 0 0 1-.141-.162 5.578 5.578 0 0 1-.196-.284c-.275-.417-.501-.712-.742-1.106-.223-.364-.385-.706-.46-1.05a2.899 2.899 0 0 1 0-1.233c.1-.464.375-.903 1.163-2.098.081-.123.145-.221.21-.311.065-.088.115-.146.156-.184Zm1.811 6.027-1 1 1-1Z"></path></g></g></symbol><symbol id="bfs-home-wifi"><g clip-path="url(#b)"><path fill="none" d="M0 0h24v24H0V0Z"></path><g fill="#141B34" fill-rule="evenodd"><path d="M7.724 4.936C8.757 4.145 9.48 3.592 10.09 3.23c.593-.352 1.007-.48 1.41-.48s.817.128 1.41.48c.61.362 1.333.915 2.366 1.706l1.224.936c.831.637 1.41 1.08 1.831 1.477.41.384.626.683.756 1.006.126.313.18.67.159 1.21-.021.554-.117 1.246-.26 2.227a.75.75 0 1 0 1.485.216c.14-.96.25-1.736.274-2.387.025-.667-.036-1.252-.267-1.827-.24-.594-.617-1.066-1.12-1.538-.49-.46-1.139-.957-1.946-1.575l-1.224-.937c-1.004-.769-1.809-1.386-2.512-1.804-.72-.428-1.403-.69-2.176-.69-.773 0-1.456.262-2.176.69-.703.418-1.507 1.035-2.512 1.804l-1.224.937c-.807.618-1.457 1.115-1.946 1.575-.503.472-.88.944-1.12 1.538-.239.593-.296 1.199-.264 1.892.031.677.15 1.495.298 2.514l.256 1.763c.21 1.446.376 2.6.622 3.497.25.916.607 1.657 1.256 2.229.65.573 1.426.826 2.357.946.898.115 2.027.115 3.435.115H11a.75.75 0 0 0 0-1.5h-.468c-1.471 0-2.503-.001-3.294-.103-.769-.099-1.215-.283-1.557-.584-.344-.303-.59-.731-.8-1.5-.216-.786-.369-1.831-.584-3.316l-.256-1.763c-.152-1.048-.258-1.78-.285-2.367-.026-.57.027-.939.157-1.262.13-.323.347-.622.756-1.006.421-.396 1-.84 1.83-1.477l1.225-.936Z"></path><path d="M16.995 14.25c-1.666 0-3.202.615-4.468 1.646a.75.75 0 0 0 .946 1.164c1.031-.84 2.24-1.31 3.522-1.31 1.286 0 2.498.474 3.53 1.318a.75.75 0 0 0 .95-1.162c-1.27-1.037-2.81-1.656-4.48-1.656Zm0 3.36a4.84 4.84 0 0 0-2.565.746.75.75 0 1 0 .79 1.275 3.343 3.343 0 0 1 1.775-.52 3.34 3.34 0 0 1 1.782.525.75.75 0 0 0 .794-1.272 4.845 4.845 0 0 0-2.576-.753ZM16 22a1 1 0 0 1 1-1h.006a1 1 0 0 1 0 2H17a1 1 0 0 1-1-1Z"></path></g></g></symbol><symbol id="bfs-hotspot-offline"><path fill="none" d="M0 0h21.5v21.5H0V0Z"></path><path fill="#141B34" fill-rule="evenodd" d="M1.28.22A.75.75 0 1 0 .22 1.28l3.413 3.413A10.725 10.725 0 0 0 0 12.75c0 2.42.8 4.655 2.15 6.451a.75.75 0 0 0 1.2-.9A9.206 9.206 0 0 1 1.5 12.75a9.227 9.227 0 0 1 3.196-6.994l1.756 1.757A6.78 6.78 0 0 0 4 12.75c0 1.724.638 3.3 1.688 4.495a.75.75 0 1 0 1.126-.99A5.289 5.289 0 0 1 5.5 12.75c0-1.702.793-3.212 2.019-4.17l1.813 1.813a2.75 2.75 0 1 0 3.775 3.775l1.687 1.686a4.96 4.96 0 0 1-.32.4.75.75 0 0 0 1.127.991c.091-.104.18-.21.264-.32l4.355 4.355a.75.75 0 1 0 1.06-1.06l-4.986-4.986a.795.795 0 0 0-.027-.028l-2.983-2.983-.007-.007-1.993-1.993-.007-.007L1.28.22Zm6.233 3.862A9.229 9.229 0 0 1 10.75 3.5 9.25 9.25 0 0 1 20 12.75c0 1.14-.206 2.23-.582 3.238a.75.75 0 0 0 1.405.524c.438-1.171.677-2.44.677-3.762C21.5 6.813 16.687 2 10.75 2c-1.322 0-2.59.24-3.763.677a.75.75 0 1 0 .526 1.405ZM10.75 6a.75.75 0 0 0 0 1.5c2.9 0 5.25 2.35 5.25 5.25a.75.75 0 0 0 1.5 0A6.75 6.75 0 0 0 10.75 6ZM9.5 12.75c0-.594.415-1.092.97-1.219l1.499 1.498A1.25 1.25 0 0 1 9.5 12.75Z"></path></symbol><symbol id="bfs-hotspot"><path fill="none" d="M0 0h21.5v17.501H0V0Z"></path><path fill="#141B34" fill-rule="evenodd" d="M1.5 10.75a9.25 9.25 0 0 1 18.5 0 9.206 9.206 0 0 1-1.85 5.55.75.75 0 1 0 1.2.901 10.705 10.705 0 0 0 2.15-6.451C21.5 4.813 16.687 0 10.75 0S0 4.813 0 10.75c0 2.42.8 4.655 2.15 6.451a.75.75 0 0 0 1.2-.9A9.206 9.206 0 0 1 1.5 10.75Zm4 0a5.25 5.25 0 1 1 9.163 3.5.75.75 0 1 0 1.118 1 6.75 6.75 0 1 0-10.062 0 .75.75 0 0 0 1.118-1 5.228 5.228 0 0 1-1.337-3.5ZM10.75 8a2.75 2.75 0 1 0 0 5.5 2.75 2.75 0 0 0 0-5.5ZM9.5 10.75a1.25 1.25 0 1 1 2.5 0 1.25 1.25 0 0 1-2.5 0Z"></path></symbol><symbol id="bfs-internet-antenna-01"><path fill="none" d="M0 0h21.5v21.5H0V0Z"></path><path fill="#141B34" fill-rule="evenodd" d="M1.5 10.75a9.25 9.25 0 0 1 18.5 0 9.206 9.206 0 0 1-1.85 5.55.75.75 0 1 0 1.2.901 10.705 10.705 0 0 0 2.15-6.451C21.5 4.813 16.687 0 10.75 0S0 4.813 0 10.75c0 2.42.8 4.655 2.15 6.451a.75.75 0 0 0 1.2-.9A9.206 9.206 0 0 1 1.5 10.75Zm4 0a5.25 5.25 0 1 1 9.163 3.5.75.75 0 1 0 1.118 1 6.75 6.75 0 1 0-10.062 0 .75.75 0 0 0 1.118-1 5.228 5.228 0 0 1-1.337-3.5ZM10.75 8a2.75 2.75 0 0 0-1.071 5.284l-1.843 4c-.313.68-.587 1.27-.725 1.753-.144.5-.199 1.073.156 1.599l.049.068c.365.492.916.657 1.438.728.508.068 1.167.068 1.944.068h.104c.777 0 1.436 0 1.944-.068.522-.071 1.073-.236 1.438-.728l.049-.069c.355-.525.3-1.098.156-1.598-.138-.483-.412-1.072-.725-1.752l-1.843-4.002A2.75 2.75 0 0 0 10.75 8ZM9.5 10.75a1.25 1.25 0 1 1 2.5 0 1.25 1.25 0 0 1-2.5 0Zm-.302 7.162 1.552-3.369 1.552 3.37c.334.726.546 1.191.646 1.538a1 1 0 0 1 .052.303c-.002.033-.007.037-.01.042a.33.33 0 0 1-.01.014s-.045.082-.435.135c-.395.053-.95.055-1.795.055s-1.4-.002-1.795-.055c-.39-.053-.434-.135-.435-.135a.419.419 0 0 1-.01-.014c-.003-.005-.008-.01-.01-.042a1 1 0 0 1 .053-.303c.099-.347.31-.812.645-1.539Z"></path></symbol><symbol id="bfs-internet-antenna-02"><path fill="none" d="M0 0h21.5v21.5H0V0Z"></path><path fill="#141B34" fill-rule="evenodd" d="M1.5 10.75a9.25 9.25 0 0 1 18.5 0 9.206 9.206 0 0 1-1.85 5.55.75.75 0 1 0 1.2.901 10.705 10.705 0 0 0 2.15-6.451C21.5 4.813 16.687 0 10.75 0S0 4.813 0 10.75c0 2.42.8 4.655 2.15 6.451a.75.75 0 0 0 1.2-.9A9.206 9.206 0 0 1 1.5 10.75Zm4 0a5.25 5.25 0 1 1 9.163 3.5.75.75 0 1 0 1.118 1 6.75 6.75 0 1 0-10.062 0 .75.75 0 0 0 1.118-1 5.228 5.228 0 0 1-1.337-3.5ZM10.75 8a2.75 2.75 0 0 0-.75 5.396V17h-.554c-.23 0-.416 0-.599.026-.367.051-.72.181-1.03.383-.164.108-.308.24-.484.397-.307.275-.564.505-.751.694-.172.174-.378.4-.48.68-.324.883.146 1.78.95 2.145.257.117.552.147.812.16.272.015.622.015 1.047.015h3.678c.425 0 .775 0 1.047-.015.26-.013.555-.043.812-.16.804-.364 1.274-1.262.95-2.144-.102-.28-.308-.507-.48-.68-.187-.19-.444-.42-.752-.695-.175-.157-.319-.29-.484-.397a2.532 2.532 0 0 0-1.03-.383C12.47 17 12.285 17 12.055 17H11.5v-3.604A2.751 2.751 0 0 0 10.75 8ZM9.5 10.75a1.25 1.25 0 1 1 2.5 0 1.25 1.25 0 0 1-2.5 0Zm-.012 7.75h2.524c.292 0 .366.002.431.01.157.023.3.078.42.155.046.03.094.07.302.258.323.289.539.483.687.633.095.095.132.145.144.16a.153.153 0 0 1-.012.102.3.3 0 0 1-.152.14h-.004c-.016.004-.088.02-.272.03-.228.012-.538.012-.992.012H8.936c-.455 0-.765 0-.993-.012a1.585 1.585 0 0 1-.272-.03h-.004a.3.3 0 0 1-.152-.14.152.152 0 0 1-.012-.102c.012-.015.05-.065.144-.16.148-.15.364-.344.687-.634a3.3 3.3 0 0 1 .302-.257c.12-.077.263-.132.42-.154.065-.01.139-.011.43-.011Z"></path></symbol><symbol id="bfs-internet-antenna-03"><path fill="none" d="M0 0h21.5v21.5H0V0Z"></path><path fill="#141B34" fill-rule="evenodd" d="M1.5 10.75a9.25 9.25 0 0 1 18.5 0 9.206 9.206 0 0 1-1.85 5.55.75.75 0 1 0 1.2.901 10.705 10.705 0 0 0 2.15-6.451C21.5 4.813 16.687 0 10.75 0S0 4.813 0 10.75c0 2.42.8 4.655 2.15 6.451a.75.75 0 0 0 1.2-.9A9.206 9.206 0 0 1 1.5 10.75Zm4 0a5.25 5.25 0 1 1 9.163 3.5.75.75 0 1 0 1.118 1 6.75 6.75 0 1 0-10.062 0 .75.75 0 0 0 1.118-1 5.228 5.228 0 0 1-1.337-3.5Zm6 0a.75.75 0 0 0-1.5 0V20H7.75a.75.75 0 0 0 0 1.5h6a.75.75 0 0 0 0-1.5H11.5v-9.25Z"></path></symbol><symbol id="bfs-internet-antenna-04"><path fill="none" d="M0 0h21.5v19.5H0V0Z"></path><path fill="#141B34" fill-rule="evenodd" d="M3.036 1.198A.75.75 0 1 0 1.832.302C.68 1.852 0 3.728 0 5.75c0 2.022.68 3.897 1.832 5.448a.75.75 0 1 0 1.204-.896C2.062 8.992 1.5 7.428 1.5 5.75c0-1.678.562-3.243 1.536-4.552ZM19.668.302a.75.75 0 0 0-1.204.896C19.438 2.508 20 4.072 20 5.75c0 1.678-.562 3.243-1.536 4.552a.75.75 0 1 0 1.204.896C20.82 9.648 21.5 7.772 21.5 5.75c0-2.022-.68-3.897-1.832-5.448ZM6.388 3.203a.75.75 0 0 0-1.194-.906C4.444 3.284 4 4.469 4 5.75c0 1.281.445 2.466 1.194 3.453a.75.75 0 0 0 1.195-.906C5.819 7.545 5.5 6.673 5.5 5.75s.318-1.795.889-2.547Zm9.918-.906a.75.75 0 1 0-1.195.906c.57.752.889 1.624.889 2.547s-.318 1.795-.889 2.547a.75.75 0 0 0 1.195.906c.75-.987 1.194-2.172 1.194-3.453 0-1.281-.445-2.466-1.194-3.453ZM10.75 3a2.75 2.75 0 0 0-1.82 4.811L5.045 18.494a.75.75 0 1 0 1.41.512L7.73 15.5h6.04l1.275 3.506a.75.75 0 1 0 1.41-.512L12.57 7.81A2.75 2.75 0 0 0 10.75 3ZM9.5 5.75a1.25 1.25 0 1 1 2.5 0 1.25 1.25 0 0 1-2.5 0ZM8.275 14l2.014-5.538a2.769 2.769 0 0 0 .922 0L13.225 14h-4.95Z"></path></symbol><symbol id="bfs-internet"><path fill="none" d="M0 0h21.5v21.5H0V0Z"></path><path fill="#141B34" fill-rule="evenodd" d="M0 10.75C0 4.813 4.813 0 10.75 0S21.5 4.813 21.5 10.75 16.687 21.5 10.75 21.5 0 16.687 0 10.75Zm9.738-8.699c.39-.412.732-.551 1.012-.551s.622.139 1.012.551c.392.414.78 1.054 1.12 1.906C13.5 5.5 13.916 7.615 13.99 10H7.51c.073-2.385.49-4.501 1.107-6.043.34-.852.728-1.492 1.12-1.906Zm4.537 1.35c.699 1.747 1.141 4.06 1.214 6.599h4.481a9.257 9.257 0 0 0-6.427-8.071c.273.438.517.934.732 1.471ZM6.01 10H1.53a9.257 9.257 0 0 1 6.427-8.071A9.347 9.347 0 0 0 7.225 3.4C6.526 5.148 6.084 7.46 6.011 10Zm1.214 8.1c.215.537.46 1.034.732 1.471A9.257 9.257 0 0 1 1.53 11.5h4.48c.074 2.54.516 4.852 1.215 6.6Zm.286-6.6h6.478c-.073 2.385-.49 4.501-1.107 6.043-.34.852-.728 1.492-1.12 1.906-.39.412-.732.551-1.012.551s-.622-.139-1.012-.551c-.392-.414-.78-1.054-1.12-1.907C8 16.003 7.584 13.886 7.51 11.5Zm6.764 6.6a9.356 9.356 0 0 1-.732 1.471A9.257 9.257 0 0 0 19.97 11.5h-4.48c-.074 2.54-.516 4.852-1.215 6.6Z"></path></symbol><symbol id="bfs-new-gps-signal-01"><g clip-path="url(#b)"><path fill="none" d="M0 0h24v24H0V0Z"></path><g fill="#141B34" fill-rule="evenodd"><path d="M9.53 10.56a2.765 2.765 0 1 1 3.91 3.91l1.06 1.06A4.265 4.265 0 1 0 8.47 9.5l1.06 1.06Z"></path><path d="M6.845 7.027c-.348-.477-.661-.91-.962-1.208-.32-.318-.737-.596-1.3-.567-.522.027-.895.282-1.182.614-.252.29-.485.697-.729 1.114C.331 10.997.88 16.235 4.322 19.677c3.443 3.443 8.681 3.992 12.698 1.65.417-.243.823-.476 1.114-.728.332-.287.587-.66.614-1.182.029-.563-.249-.98-.567-1.3-.298-.3-.73-.614-1.208-.962-1.804-1.318-3.593-2.94-5.391-4.737-1.798-1.798-3.419-3.587-4.737-5.391Zm-2.18-.275a.083.083 0 0 0-.008-.003c-.008-.002-.035-.002-.123.1-.138.159-.292.418-.566.887a8.995 8.995 0 0 0 12.296 12.296c.47-.274.728-.428.888-.567.103-.089.1-.115.099-.123a.698.698 0 0 0-.134-.169c-.194-.195-.509-.427-1.028-.807-1.892-1.381-3.741-3.061-5.568-4.887-1.826-1.827-3.506-3.676-4.887-5.568-.38-.52-.612-.834-.807-1.027a.696.696 0 0 0-.163-.132Zm10.969-5.498a.75.75 0 1 0-.153 1.492c1.528.157 2.906.76 3.958 1.81 1.056 1.055 1.66 2.435 1.815 3.966a.75.75 0 0 0 1.492-.15c-.185-1.836-.919-3.551-2.247-4.877-1.324-1.322-3.034-2.053-4.865-2.241Zm-.463 3.51a.75.75 0 1 0-.342 1.46 3.92 3.92 0 0 1 1.9 1.038 3.909 3.909 0 0 1 1.042 1.908.75.75 0 0 0 1.461-.34A5.41 5.41 0 0 0 17.79 6.2a5.418 5.418 0 0 0-2.619-1.436Z"></path></g></g></symbol><symbol id="bfs-new-gps-signal-02"><g clip-path="url(#b)"><path fill="none" d="M0 0h24v24H0V0Z"></path><g fill="#141B34" fill-rule="evenodd"><path d="M21.702 2.293a1 1 0 0 0-1.415 1.414l.006.005a1 1 0 0 0 1.414-1.414l-.005-.005ZM19.204 4.79a1 1 0 1 0-1.414 1.414l.005.006a1 1 0 1 0 1.414-1.414l-.005-.006Zm-2.497 2.498a1 1 0 1 0-1.414 1.414l.005.005a1 1 0 1 0 1.414-1.414l-.005-.005ZM9.53 10.56a2.765 2.765 0 1 1 3.91 3.91l1.06 1.06A4.265 4.265 0 1 0 8.47 9.5l1.06 1.06Z"></path><path d="M6.845 7.027c-.348-.477-.661-.91-.962-1.208-.32-.318-.737-.596-1.3-.567-.522.027-.895.282-1.182.614-.252.29-.485.697-.729 1.114C.331 10.997.88 16.235 4.322 19.677c3.443 3.443 8.681 3.992 12.698 1.65.417-.243.823-.476 1.114-.728.332-.287.587-.66.614-1.182.029-.563-.249-.98-.567-1.3-.298-.3-.73-.614-1.208-.962-1.804-1.318-3.593-2.94-5.391-4.737-1.798-1.798-3.419-3.587-4.737-5.391Zm-2.18-.275a.083.083 0 0 0-.008-.003c-.008-.002-.035-.002-.123.1-.138.159-.292.418-.566.887a8.995 8.995 0 0 0 12.296 12.296c.47-.274.728-.428.888-.567.103-.089.1-.115.099-.123a.698.698 0 0 0-.134-.169c-.194-.195-.509-.427-1.028-.807-1.892-1.381-3.741-3.061-5.568-4.887-1.826-1.827-3.506-3.676-4.887-5.568-.38-.52-.612-.834-.807-1.027a.696.696 0 0 0-.163-.132Z"></path></g></g></symbol><symbol id="bfs-new-new-gps-signal-01"><g clip-path="url(#b)"><path fill="none" d="M0 0h24v24H0V0Z"></path><g fill="#141B34" fill-rule="evenodd"><path d="M9.53 10.56a2.765 2.765 0 1 1 3.91 3.91l1.06 1.06A4.265 4.265 0 1 0 8.47 9.5l1.06 1.06Z"></path><path d="M6.845 7.027c-.348-.477-.661-.91-.962-1.208-.32-.318-.737-.596-1.3-.567-.522.027-.895.282-1.182.614-.252.29-.485.697-.729 1.114C.331 10.997.88 16.235 4.322 19.677c3.443 3.443 8.681 3.992 12.698 1.65.417-.243.823-.476 1.114-.728.332-.287.587-.66.614-1.182.029-.563-.249-.98-.567-1.3-.298-.3-.73-.614-1.208-.962-1.804-1.318-3.593-2.94-5.391-4.737-1.798-1.798-3.419-3.587-4.737-5.391Zm-2.18-.275a.083.083 0 0 0-.008-.003c-.008-.002-.035-.002-.123.1-.138.159-.292.418-.566.887a8.995 8.995 0 0 0 12.296 12.296c.47-.274.728-.428.888-.567.103-.089.1-.115.099-.123a.698.698 0 0 0-.134-.169c-.194-.195-.509-.427-1.028-.807-1.892-1.381-3.741-3.061-5.568-4.887-1.826-1.827-3.506-3.676-4.887-5.568-.38-.52-.612-.834-.807-1.027a.696.696 0 0 0-.163-.132Zm10.969-5.498a.75.75 0 1 0-.153 1.492c1.528.157 2.906.76 3.958 1.81 1.056 1.055 1.66 2.435 1.815 3.966a.75.75 0 0 0 1.492-.15c-.185-1.836-.919-3.551-2.247-4.877-1.324-1.322-3.034-2.053-4.865-2.241Zm-.463 3.51a.75.75 0 1 0-.342 1.46 3.92 3.92 0 0 1 1.9 1.038 3.909 3.909 0 0 1 1.042 1.908.75.75 0 0 0 1.461-.34A5.41 5.41 0 0 0 17.79 6.2a5.418 5.418 0 0 0-2.619-1.436Z"></path></g></g></symbol><symbol id="bfs-new-wifi-error-01"><g clip-path="url(#b)"><path fill="none" d="M0 0h24v24H0V0Z"></path><g fill="#141B34" fill-rule="evenodd"><path d="M12.67 11.324a3.06 3.06 0 0 0-1.34 0c-.732.164-1.267.672-1.745 1.304-.477.632-.991 1.52-1.633 2.622-.594 1.023-1.077 1.85-1.366 2.527-.29.676-.46 1.361-.227 2.045.139.409.374.778.683 1.082.506.497 1.194.678 1.953.763.753.083 1.735.083 2.958.083h.094c1.223 0 2.205 0 2.958-.083.759-.085 1.447-.266 1.953-.763.31-.304.544-.673.683-1.082.233-.683.063-1.369-.226-2.045-.29-.676-.773-1.504-1.367-2.527-.641-1.103-1.156-1.99-1.633-2.622-.478-.632-1.013-1.14-1.745-1.304Zm-1.011 1.464c.224-.05.458-.05.682 0 .208.046.47.205.877.745.41.541.872 1.334 1.533 2.471.615 1.058 1.04 1.792 1.284 2.363.245.573.236.824.186.972a1.267 1.267 0 0 1-.314.495c-.137.134-.402.268-1.067.342-.66.073-1.559.074-2.84.074-1.282 0-2.18-.001-2.84-.074-.665-.074-.93-.208-1.067-.342a1.268 1.268 0 0 1-.314-.495c-.05-.148-.06-.399.186-.971.244-.572.669-1.306 1.284-2.364.661-1.137 1.124-1.93 1.533-2.471.408-.54.669-.699.877-.745ZM12.75 15a.75.75 0 0 0-1.5 0v1.5a.75.75 0 0 0 1.5 0V15ZM12 17.75a.75.75 0 0 0 0 1.5h.009a.75.75 0 0 0 0-1.5H12Zm6.997-8.312c-4.06-3.591-9.708-3.572-13.977-.014a.75.75 0 0 0 .96 1.152c3.73-3.109 8.547-3.09 12.023-.014a.75.75 0 0 0 .994-1.124Z"></path><path d="M22.484 6.427C19.214 3.666 15.626 2.25 12 2.25c-3.626 0-7.214 1.416-10.484 4.177a.75.75 0 1 0 .968 1.146C5.53 5.001 8.784 3.75 12 3.75S18.47 5 21.516 7.573a.75.75 0 0 0 .968-1.146Z"></path></g></g></symbol><symbol id="bfs-new-wifi-error-02"><g clip-path="url(#b)"><path fill="none" d="M0 0h24v24H0V0Z"></path><path fill="#141B34" fill-rule="evenodd" d="M10.005 16.681a.75.75 0 0 0-.629-1.362 5.74 5.74 0 0 0-1.656 1.15.75.75 0 1 0 1.06 1.061c.357-.357.773-.64 1.225-.849Zm4.619-1.362a.75.75 0 0 0-.63 1.362c.453.209.869.492 1.226.85a.75.75 0 1 0 1.06-1.061 5.74 5.74 0 0 0-1.656-1.15Zm.607-4.032a.75.75 0 0 0-.462 1.427 9.283 9.283 0 0 1 3.239 1.852.75.75 0 0 0 .985-1.132 10.784 10.784 0 0 0-3.762-2.147Zm-5.994 1.47a.75.75 0 1 0-.474-1.423 11.754 11.754 0 0 0-3.739 2.086.75.75 0 1 0 .952 1.16 10.254 10.254 0 0 1 3.26-1.822Zm-1.016-4.54a.75.75 0 0 0-.442-1.433c-2.185.674-4.292 1.979-6.263 3.643a.75.75 0 0 0 .968 1.146C4.358 9.991 6.29 8.813 8.22 8.217Zm8-1.433a.75.75 0 1 0-.442 1.433c1.931.596 3.863 1.774 5.737 3.356a.75.75 0 0 0 .968-1.146c-1.971-1.664-4.079-2.97-6.263-3.643ZM11 20a1 1 0 0 1 1-1h.012a1 1 0 0 1 0 2H12a1 1 0 0 1-1-1Zm2.905-16.352c-1.13-.53-2.68-.53-3.81 0-.714.336-.919 1.087-.821 1.668l1.986 11.808a.75.75 0 0 0 1.48 0l1.986-11.808c.098-.581-.107-1.332-.82-1.668Zm-3.154 1.364.002-.016c.72-.328 1.774-.328 2.493 0l.003.016a.206.206 0 0 1-.002.055L12 12.48l-1.247-7.412a.207.207 0 0 1-.002-.055Z"></path></g></symbol><symbol id="bfs-no-internet"><path fill="none" d="M0 0h21.5v21.5H0V0Z"></path><path fill="#141B34" fill-rule="evenodd" d="M6.588 2.487c.393-.199.802-.37 1.225-.511-.289.444-.544.95-.76 1.5a.75.75 0 0 0 1.396.548c.335-.855.755-1.51 1.184-1.938.433-.432.822-.586 1.117-.586.28 0 .622.139 1.012.551.392.414.78 1.054 1.12 1.906C13.562 5.658 14 8.06 14 10.75c0 .414.336.75.75.75h5.22a9.185 9.185 0 0 1-.957 3.412.75.75 0 0 0 1.339.676A10.706 10.706 0 0 0 21.5 10.75C21.5 4.813 16.687 0 10.75 0a10.7 10.7 0 0 0-4.838 1.148.75.75 0 0 0 .676 1.339ZM1.28.22A.75.75 0 0 0 .22 1.28L2.7 3.761A10.583 10.583 0 0 0 0 10.832C0 16.73 4.819 21.5 10.75 21.5c2.703 0 5.174-.99 7.064-2.626l2.406 2.407a.75.75 0 0 0 1.06-1.06L1.28.22ZM14.275 3.4a9.354 9.354 0 0 0-.732-1.471A9.257 9.257 0 0 1 19.97 10h-4.48c-.074-2.54-.516-4.852-1.215-6.6ZM1.538 10a9.085 9.085 0 0 1 2.225-5.176l2.474 2.474c-.122.856-.2 1.763-.226 2.702H1.538Zm5.973 0c.014-.46.041-.91.08-1.348L8.939 10H7.511Zm-.286 8.1a9.34 9.34 0 0 0 .735 1.476C4.418 18.467 1.8 15.302 1.524 11.5h4.487c.073 2.54.515 4.852 1.214 6.6Zm.286-6.6h2.928l3.08 3.08a.771.771 0 0 0-.008.04c-.301 1.725-.747 3.133-1.282 4.088-.553.988-1.078 1.292-1.479 1.292-.28 0-.622-.139-1.012-.551-.392-.414-.78-1.054-1.12-1.907C8 16.003 7.584 13.886 7.51 11.5Zm6.027 7.94c.53-.946.95-2.18 1.259-3.583l1.953 1.953a9.252 9.252 0 0 1-3.307 1.796l.095-.165Z"></path></symbol><symbol id="bfs-router-01"><g clip-path="url(#b)"><path fill="none" d="M0 0h24v24H0V0Z"></path><g fill="#141B34" fill-rule="evenodd"><path d="M6 12.25h-.052c-.898 0-1.648 0-2.242.08-.628.084-1.195.27-1.65.726-.456.455-.642 1.022-.726 1.65-.08.594-.08 1.344-.08 2.242v.104c0 .898 0 1.648.08 2.242.084.628.27 1.195.725 1.65.456.456 1.023.642 1.65.726.595.08 1.345.08 2.243.08h12.104c.898 0 1.648 0 2.242-.08.628-.084 1.195-.27 1.65-.726.456-.455.642-1.022.726-1.65.08-.594.08-1.343.08-2.242v-.104c0-.899 0-1.648-.08-2.242-.084-.628-.27-1.195-.726-1.65-.455-.456-1.022-.642-1.65-.726-.594-.08-1.343-.08-2.242-.08H6Zm-2.884 1.866c.13-.13.328-.237.79-.3.482-.064 1.13-.066 2.094-.066h12c.964 0 1.612.002 2.095.066.461.063.659.17.789.3.13.13.237.328.3.79.064.482.066 1.13.066 2.094s-.002 1.612-.067 2.095c-.062.461-.169.659-.3.789-.13.13-.327.237-.788.3-.483.064-1.131.066-2.095.066H6c-.964 0-1.612-.002-2.095-.067-.461-.062-.659-.169-.789-.3-.13-.13-.237-.327-.3-.788-.064-.483-.066-1.131-.066-2.095 0-.964.002-1.612.067-2.095.062-.461.169-.659.3-.789ZM11.995 1.25c-1.666 0-3.202.615-4.468 1.646a.75.75 0 0 0 .946 1.164c1.031-.84 2.24-1.31 3.522-1.31 1.286 0 2.498.474 3.53 1.318a.75.75 0 1 0 .95-1.162c-1.27-1.037-2.81-1.656-4.48-1.656Zm0 3.36a4.84 4.84 0 0 0-2.565.746.75.75 0 1 0 .79 1.275 3.344 3.344 0 0 1 1.775-.52c.632 0 1.236.185 1.782.525a.75.75 0 0 0 .794-1.272 4.845 4.845 0 0 0-2.576-.753ZM11 9a1 1 0 0 1 1-1h.006a1 1 0 0 1 0 2H12a1 1 0 0 1-1-1Z"></path><path d="M17 17a1 1 0 0 1 1-1h.009a1 1 0 1 1 0 2h-.01a1 1 0 0 1-1-1Zm-4 0a1 1 0 0 1 1-1h.009a1 1 0 1 1 0 2h-.01a1 1 0 0 1-1-1Zm-7.75 0a.75.75 0 0 1 .75-.75h4a.75.75 0 0 1 0 1.5H6a.75.75 0 0 1-.75-.75Z"></path></g></g></symbol><symbol id="bfs-router-02"><g clip-path="url(#b)"><path fill="none" d="M0 0h24v24H0V0Z"></path><g fill="#141B34" fill-rule="evenodd"><path d="M6 13.25h-.052c-.898 0-1.648 0-2.242.08-.628.084-1.195.27-1.65.725-.456.456-.642 1.023-.726 1.65-.08.595-.08 1.344-.08 2.243v.104c0 .898 0 1.648.08 2.242.084.628.27 1.195.725 1.65.456.456 1.023.642 1.65.726.595.08 1.345.08 2.243.08h12.104c.898 0 1.648 0 2.242-.08.628-.084 1.195-.27 1.65-.726.456-.455.642-1.022.726-1.65.08-.594.08-1.343.08-2.242v-.104c0-.899 0-1.648-.08-2.243-.084-.627-.27-1.194-.726-1.65-.455-.455-1.022-.64-1.65-.725-.594-.08-1.344-.08-2.242-.08H6Zm-2.884 1.866c.13-.13.328-.237.79-.3.482-.064 1.13-.066 2.094-.066h12c.964 0 1.612.002 2.095.066.461.063.659.17.789.3.13.13.237.328.3.79.064.482.066 1.13.066 2.094s-.002 1.612-.067 2.095c-.062.461-.169.659-.3.789-.13.13-.327.237-.788.3-.483.064-1.131.066-2.095.066H6c-.964 0-1.612-.002-2.095-.067-.461-.062-.659-.169-.789-.3-.13-.13-.237-.327-.3-.788-.064-.483-.066-1.131-.066-2.095 0-.964.002-1.612.067-2.095.062-.461.169-.659.3-.789Z"></path><path d="M9 5.25a.75.75 0 0 1 .75.75v8a.75.75 0 0 1-1.5 0V6A.75.75 0 0 1 9 5.25ZM6 17a1 1 0 1 0 0 2h.009a1 1 0 1 0 0-2h-.01Zm3.995 0a1 1 0 1 0 0 2h.01a1 1 0 1 0 0-2h-.01Zm3.996 0a1 1 0 1 0 0 2H14a1 1 0 1 0 0-2h-.01ZM4.068 2.474a.75.75 0 0 0-1.162-.948C1.869 2.795 1.25 4.335 1.25 6.006c0 1.665.615 3.2 1.646 4.467a.75.75 0 0 0 1.164-.946c-.84-1.031-1.31-2.24-1.31-3.522 0-1.286.474-2.498 1.318-3.53Zm2.568 1.749a.75.75 0 1 0-1.272-.794 4.845 4.845 0 0 0-.753 2.576c0 .93.272 1.803.745 2.565a.75.75 0 1 0 1.275-.79 3.344 3.344 0 0 1-.52-1.775c0-.632.185-1.236.525-1.782Z"></path><path d="M7.996 5.997a1 1 0 0 1 1-1h.006a1 1 0 0 1 0 2h-.006a1 1 0 0 1-1-1Z"></path></g></g></symbol><symbol id="bfs-satellite"><g clip-path="url(#b)"><path fill="none" d="M0 0h24v24H0V0Z"></path><g fill="#141B34" fill-rule="evenodd"><path d="M18.421 5.579a4.537 4.537 0 0 0-6.416 0L9.863 7.72c-.418.418-.776.774-1.032 1.093-.266.33-.482.69-.552 1.132a2.373 2.373 0 0 0 0 .742c.07.443.286.801.552 1.131.256.32.614.675 1.032 1.094l1.224 1.224c.419.418.774.776 1.094 1.032.33.266.688.482 1.13.552.247.039.497.039.743 0 .443-.07.801-.286 1.132-.552.319-.256.675-.614 1.093-1.032l2.142-2.142a4.537 4.537 0 0 0 0-6.416Zm-5.355 1.06a3.037 3.037 0 1 1 4.295 4.295l-2.143 2.142c-.442.442-.731.73-.973.925-.23.185-.347.226-.425.238a.875.875 0 0 1-.274 0c-.078-.012-.195-.053-.425-.238-.241-.194-.531-.483-.973-.925l-1.224-1.224c-.442-.442-.73-.732-.925-.973-.185-.23-.226-.347-.238-.426a.873.873 0 0 1 0-.273c.012-.078.053-.195.238-.425.194-.242.483-.531.925-.973l2.142-2.143Zm-5.47 7.304a.75.75 0 0 0-1.496.114c.148 1.945 1.897 3.671 3.842 3.821a.75.75 0 0 0 .116-1.495c-1.219-.094-2.371-1.244-2.462-2.44Zm-3.841 1.333a.75.75 0 1 0-1.498-.076c-.09 1.766.71 3.44 1.918 4.64 1.21 1.2 2.894 1.99 4.665 1.904a.75.75 0 0 0-.072-1.499c-1.279.062-2.57-.512-3.536-1.47-.966-.959-1.541-2.236-1.477-3.499Z"></path><path d="M9.01 4.398c.305-.304.48-.478.62-.585a.811.811 0 0 1 .077-.053c.017.01.042.027.076.053.14.106.314.278.615.58l1.59 1.656L13.07 5.01l-1.595-1.662-.006-.006-.005-.005c-.274-.274-.532-.534-.77-.716-.257-.196-.577-.371-.987-.371-.41 0-.73.175-.986.37-.239.183-.497.443-.77.717l-.614.613c-.274.274-.534.532-.716.771-.196.256-.371.577-.371.986 0 .41.175.73.37.986.183.24.443.497.717.771l1.45 1.451 1.062-1.06-1.451-1.452c-.304-.304-.478-.48-.585-.62a.811.811 0 0 1-.053-.076.811.811 0 0 1 .053-.076c.107-.14.28-.316.585-.62l.613-.613Zm8.881 7.487 1.711 1.712c.305.304.478.48.585.62.026.034.042.059.053.076a.811.811 0 0 1-.053.076c-.107.14-.28.316-.585.62l-.613.613c-.304.304-.48.478-.62.585a.811.811 0 0 1-.076.053.811.811 0 0 1-.076-.053c-.14-.107-.316-.28-.62-.585l-1.556-1.555-1.06 1.06 1.555 1.556c.274.274.532.534.77.716.257.196.577.371.987.371.41 0 .73-.175.986-.37.239-.183.497-.443.77-.717l.614-.613c.274-.274.534-.532.716-.771.196-.256.371-.577.371-.986 0-.41-.175-.73-.37-.986-.183-.24-.443-.497-.717-.771l-1.711-1.711-1.06 1.06Zm-8.214-8.14 1 1-1-1Zm1.055 0-1 1 1-1ZM7.745 5.677l1 1-1-1Zm0 1.055 1-1-1 1Zm13.508 7.53-1 1 1-1Zm0 1.056-1-1 1 1Zm-2.99 1.935 1-1-1 1Zm1.055 0-1-1 1 1Z"></path></g></g></symbol><symbol id="bfs-secured-network"><g clip-path="url(#b)"><path fill="none" d="M0 0h24v24H0V0Z"></path><g fill="#141B34" fill-rule="evenodd"><path d="M12 1.25c-2.351 0-4.25 1.916-4.25 4.27v2.236a6.75 6.75 0 1 0 8.5 0V5.52c0-2.355-1.899-4.271-4.25-4.271Zm0 5c-.98 0-1.91.209-2.75.584V5.52A2.76 2.76 0 0 1 12 2.75a2.76 2.76 0 0 1 2.75 2.77v1.314A6.726 6.726 0 0 0 12 6.25ZM6.75 13a5.25 5.25 0 1 1 10.5 0 5.25 5.25 0 0 1-10.5 0Z"></path><path d="M11 13a1 1 0 0 1 1-1h.009a1 1 0 1 1 0 2h-.01a1 1 0 0 1-1-1Zm1.75 6a.75.75 0 0 0-1.5 0v2.25H4a.75.75 0 0 0 0 1.5h16a.75.75 0 0 0 0-1.5h-7.25V19Z"></path></g></g></symbol><symbol id="bfs-security-wifi"><g clip-path="url(#b)"><path fill="none" d="M0 0h24v24H0V0Z"></path><g fill="#141B34" fill-rule="evenodd"><path d="M12 1.25c-.776 0-1.506.279-2.628.69L6.424 3.017c-1.37.502-2.272.816-2.919 1.43-.383.363-.69.797-.906 1.276-.35.781-.35 1.683-.35 3.014l.001.17v.9c0 2.283 0 3.577.323 4.774a9.472 9.472 0 0 0 2.2 3.967c.862.932 1.994 1.646 4.022 2.938.882.562 1.453.935 2.077 1.109a4.205 4.205 0 0 0 2.256 0c.624-.174 1.195-.547 2.077-1.11 2.028-1.291 3.16-2.005 4.022-2.937a9.471 9.471 0 0 0 2.2-3.967c.323-1.197.323-2.492.323-4.775V8.74c0-1.332.001-2.234-.35-3.015a4.045 4.045 0 0 0-.905-1.276c-.647-.614-1.55-.928-2.92-1.43L14.629 1.94c-1.123-.41-1.853-.69-2.629-.69ZM9.888 3.348C11.11 2.9 11.552 2.75 12 2.75c.448 0 .89.15 2.112.598l2.948 1.079c1.502.55 2.035.76 2.402 1.109.242.23.436.503.57.803.202.45.218 1.001.218 2.57v.772c0 2.445-.006 3.529-.27 4.51a7.973 7.973 0 0 1-1.853 3.339c-.7.756-1.631 1.356-3.728 2.692-.963.614-1.316.83-1.674.929a2.706 2.706 0 0 1-1.45 0c-.358-.1-.71-.315-1.674-.93-2.097-1.335-3.028-1.935-3.728-2.691a7.973 7.973 0 0 1-1.852-3.34c-.265-.98-.271-2.064-.271-4.51v-.77c0-1.569.016-2.12.218-2.57.134-.3.328-.573.57-.803.367-.348.9-.56 2.402-1.11l2.948-1.078Z"></path><path d="M11.995 7.25c-1.666 0-3.202.615-4.468 1.646a.75.75 0 1 0 .946 1.164c1.031-.84 2.24-1.31 3.522-1.31 1.286 0 2.498.474 3.53 1.318a.75.75 0 1 0 .95-1.162c-1.27-1.037-2.81-1.656-4.48-1.656Zm0 3.36a4.84 4.84 0 0 0-2.565.746.75.75 0 0 0 .79 1.275 3.343 3.343 0 0 1 1.775-.52 3.34 3.34 0 0 1 1.782.525.75.75 0 0 0 .794-1.272 4.845 4.845 0 0 0-2.576-.753ZM11 15a1 1 0 0 1 1-1h.006a1 1 0 1 1 0 2H12a1 1 0 0 1-1-1Z"></path></g></g></symbol><symbol id="bfs-shared-wifi"><g clip-path="url(#b)"><path fill="none" d="M0 0h24v24H0V0Z"></path><path fill="#141B34" fill-rule="evenodd" d="M12 2.75a9.205 9.205 0 0 0-4.477 1.154 2.75 2.75 0 1 1-.97-1.173A10.701 10.701 0 0 1 12 1.25c.735 0 1.454.074 2.15.215a.75.75 0 0 1-.3 1.47A9.296 9.296 0 0 0 12 2.75Zm7-.5c-.809 0-1.537.35-2.04.905a2.75 2.75 0 0 0 3.135 4.368 9.301 9.301 0 0 1 .969 6.328.75.75 0 1 0 1.471.298 10.796 10.796 0 0 0-1.265-7.596A2.75 2.75 0 0 0 19 2.25ZM3.75 5a1.25 1.25 0 1 1 2.5 0 1.25 1.25 0 0 1-2.5 0Zm14.323-.838a1.25 1.25 0 1 1 1.854 1.677 1.25 1.25 0 0 1-1.854-1.677ZM2.935 10.149a.75.75 0 1 0-1.47-.298 10.796 10.796 0 0 0 1.265 7.596 2.75 2.75 0 1 0 1.173-.97 9.296 9.296 0 0 1-.969-6.328h.001ZM19 16.25a2.75 2.75 0 0 0-2.523 3.846 9.3 9.3 0 0 1-6.328.969.75.75 0 1 0-.298 1.47 10.795 10.795 0 0 0 7.596-1.265A2.75 2.75 0 1 0 19 16.25ZM4.162 18.073a1.25 1.25 0 1 1 1.677 1.854 1.25 1.25 0 0 1-1.677-1.854ZM17.75 19a1.25 1.25 0 1 1 2.5 0 1.25 1.25 0 0 1-2.5 0ZM11.995 8.25c-1.666 0-3.202.615-4.468 1.646a.75.75 0 1 0 .946 1.164c1.031-.84 2.24-1.31 3.522-1.31 1.286 0 2.498.474 3.53 1.318a.75.75 0 1 0 .95-1.162c-1.27-1.037-2.81-1.656-4.48-1.656Zm0 3.36a4.84 4.84 0 0 0-2.565.746.75.75 0 0 0 .79 1.275 3.343 3.343 0 0 1 1.775-.52 3.34 3.34 0 0 1 1.782.525.75.75 0 0 0 .794-1.272 4.845 4.845 0 0 0-2.576-.753ZM11 16a1 1 0 0 1 1-1h.006a1 1 0 0 1 0 2H12a1 1 0 0 1-1-1Z"></path></g></symbol><symbol id="bfs-signal-full-01"><path fill="none" d="M0 0h20.5v15.5H0V0Z"></path><path fill="#141B34" fill-rule="evenodd" d="M3.75 0h-.057c-.81 0-1.497 0-2.016.072C1.153.145.555.322.223.897c-.052.09-.096.185-.132.282-.226.614.008 1.19.276 1.65.274.47.715 1.034 1.237 1.705l.746.958c.172.22.35.452.523.618.038.037.08.076.128.113v8.527a.75.75 0 0 0 1.5 0V6.223c.047-.037.09-.076.127-.113.173-.166.35-.397.523-.618l.746-.958c.522-.671.963-1.235 1.237-1.705.268-.46.502-1.036.276-1.65a1.827 1.827 0 0 0-.132-.282C6.947.322 6.348.145 5.825.072 5.305 0 4.618 0 3.808 0H3.75ZM1.885 1.558c-.248.035-.34.08-.366.097a.327.327 0 0 0-.017.036c0 .029.017.135.162.383.21.361.574.83 1.125 1.538l.746.958c.086.11.155.2.217.275l.216-.275.746-.958c.55-.707.914-1.177 1.125-1.538C5.983 1.826 6 1.72 6 1.69a.328.328 0 0 0-.016-.036c-.027-.018-.118-.062-.367-.097-.403-.056-.983-.058-1.866-.058-.884 0-1.464.002-1.867.058Zm-.367 1.097c-.063-.027.204-.387.991-.999-.534.72-.927 1.026-.99.999Zm5.46 0c-.064.027-.458-.279-.991-.999.787.612 1.054.972.99.999ZM2.34 1.684c.286.022.292.378-.839.998-.012-.711.554-1.021.84-.998Zm3.82 0c.286-.023.851.287.84.998-1.132-.62-1.126-.976-.84-.998ZM20.5 2.75a.75.75 0 0 0-1.5 0v12a.75.75 0 0 0 1.5 0v-12Zm-4 3a.75.75 0 0 0-1.5 0v9a.75.75 0 0 0 1.5 0v-9Zm-4 1a.75.75 0 0 0-1.5 0v8a.75.75 0 0 0 1.5 0v-8Zm-4 3a.75.75 0 0 0-1.5 0v5a.75.75 0 0 0 1.5 0v-5Z"></path></symbol><symbol id="bfs-signal-full-02"><g clip-path="url(#b)"><path fill="none" d="M0 0h24v24H0V0Z"></path><path fill="#141B34" fill-rule="evenodd" d="M5 13.25h-.045c-.433 0-.83 0-1.152.043-.356.048-.731.16-1.04.47-.31.309-.422.684-.47 1.04-.043.323-.043.72-.043 1.152v1.09c0 .433 0 .83.043 1.152.048.356.16.731.47 1.04.309.31.684.422 1.04.47.323.043.72.043 1.152.043h.09c.433 0 .83 0 1.152-.043.356-.048.731-.16 1.04-.47.31-.309.422-.684.47-1.04.043-.323.043-.72.043-1.152v-1.09c0-.433 0-.83-.043-1.152-.048-.356-.16-.731-.47-1.04-.309-.31-.684-.422-1.04-.47-.323-.043-.72-.043-1.152-.043H5Zm-.177 1.574-.295.466-.09.148-.615.385.572-.428.427-.572Zm-1.001.002.001-.003.003-.001a.706.706 0 0 1 .177-.042c.21-.028.504-.03.997-.03s.787.002.997.03a.706.706 0 0 1 .177.042l.003.001.001.003a.706.706 0 0 1 .042.177c.028.21.03.504.03.997v1c0 .493-.002.787-.03.997a.705.705 0 0 1-.042.177l-.001.003-.003.001a.704.704 0 0 1-.177.042c-.21.028-.504.03-.997.03s-.787-.002-.997-.03a.703.703 0 0 1-.177-.042l-.003-.001-.001-.003a.704.704 0 0 1-.042-.177c-.028-.21-.03-.504-.03-.997v-1c0-.493.002-.787.03-.997a.706.706 0 0 1 .042-.177Zm2.849 3.882.014-.023.491-.509-.265.322-.19.237-.224.176-.32.265.494-.468Zm.506-2.885-1-1 .432.35.568.65Zm-3.123-.222-.23.222 1-1-.77.778ZM12 9.25h-.045c-.433 0-.83 0-1.152.043-.356.048-.731.16-1.04.47-.31.309-.422.684-.47 1.04-.043.323-.043.72-.043 1.152v5.09c0 .433 0 .83.043 1.152.048.356.16.731.47 1.04.309.31.684.422 1.04.47.323.043.72.043 1.152.043h.09c.433 0 .83 0 1.152-.043.356-.048.731-.16 1.04-.47.31-.309.422-.684.47-1.04.043-.323.043-.72.043-1.152v-5.09c0-.433 0-.83-.043-1.152-.048-.356-.16-.731-.47-1.04-.309-.31-.684-.422-1.04-.47-.323-.043-.72-.043-1.152-.043H12Zm-.177 1.574-.295.466-.09.148-.615.385.572-.428.427-.572Zm-1.001.002.001-.003.003-.001a.706.706 0 0 1 .177-.042c.21-.028.504-.03.997-.03s.787.002.997.03a.705.705 0 0 1 .177.042l.003.001.001.003a.704.704 0 0 1 .042.177c.028.21.03.504.03.997v5c0 .493-.002.787-.03.997a.702.702 0 0 1-.042.177l-.001.003-.003.001a.702.702 0 0 1-.177.042c-.21.028-.504.03-.997.03s-.787-.002-.997-.03a.704.704 0 0 1-.177-.042l-.003-.001-.001-.003a.705.705 0 0 1-.042-.177c-.028-.21-.03-.504-.03-.997v-5c0-.493.002-.787.03-.997a.706.706 0 0 1 .042-.177Zm.056 7.35.945.93-.086.07-.914-.656.71.41-.158-.187-.497-.567Zm3.267.033.031-.032-.35.43-.65.57.969-.968Zm.032-6.386-1-1 .433.35.567.65Zm-3.123-.222-.23.222 1-1-.77.778ZM19 5.25h-.045c-.433 0-.83 0-1.152.043-.356.048-.731.16-1.04.47-.31.309-.422.684-.47 1.04-.043.323-.043.72-.043 1.152v9.09c0 .433 0 .83.043 1.152.048.356.16.731.47 1.04.309.31.684.422 1.04.47.323.043.72.043 1.152.043h.09c.433 0 .83 0 1.152-.043.356-.048.731-.16 1.04-.47.31-.309.422-.684.47-1.04.043-.323.043-.72.043-1.152v-9.09c0-.433 0-.83-.043-1.152-.048-.356-.16-.731-.47-1.04-.309-.31-.684-.422-1.04-.47-.323-.043-.72-.043-1.152-.043H19Zm-.177 1.574-.295.466-.09.148-.615.385.572-.428.427-.572Zm-1.001.002.001-.003.003-.001a.704.704 0 0 1 .177-.042c.21-.028.504-.03.997-.03s.787.002.997.03a.704.704 0 0 1 .177.042l.003.001.001.003a.703.703 0 0 1 .042.177c.028.21.03.504.03.997v9c0 .493-.002.787-.03.997a.702.702 0 0 1-.042.177l-.001.003-.003.001a.702.702 0 0 1-.177.042c-.21.028-.504.03-.997.03s-.787-.002-.997-.03a.702.702 0 0 1-.177-.042l-.003-.001-.001-.003a.702.702 0 0 1-.042-.177c-.028-.21-.03-.504-.03-.997V8c0-.493.002-.787.03-.997a.703.703 0 0 1 .042-.177Zm.681 11.88.157.117.04.195.123.159-.078-.169-.085-.185-.837-.646.68.528Zm1.681.47.098-.217.115-.092.603-.503.177-.188-.17.2-.716.667-.114.122.007.012Zm.993-11.353-1-1 .433.35.567.65Zm-3.123-.222-.23.222 1-1-.77.778Z"></path></g></symbol><symbol id="bfs-signal-low-01"><path fill="none" d="M0 0h20.5v15.5H0V0Z"></path><path fill="#141B34" fill-rule="evenodd" d="M3.75 0h-.057c-.81 0-1.497 0-2.016.072C1.153.145.555.322.223.897c-.052.09-.096.185-.132.282-.226.614.008 1.19.276 1.65.274.47.715 1.034 1.237 1.705l.746.958c.172.22.35.452.523.618.038.037.08.076.128.113v8.527a.75.75 0 0 0 1.5 0V6.223c.047-.037.09-.076.127-.113.173-.166.35-.397.523-.618l.746-.958c.522-.671.963-1.235 1.237-1.705.268-.46.502-1.036.276-1.65a1.827 1.827 0 0 0-.132-.282C6.947.322 6.348.145 5.825.072 5.305 0 4.618 0 3.808 0H3.75ZM1.885 1.558c-.248.035-.34.08-.366.097a.327.327 0 0 0-.017.036c0 .029.017.135.162.383.21.361.574.83 1.125 1.538l.746.958c.086.11.155.2.217.275l.216-.275.746-.958c.55-.707.914-1.177 1.125-1.538C5.983 1.826 6 1.72 6 1.69a.328.328 0 0 0-.016-.036c-.027-.018-.118-.062-.367-.097-.403-.056-.983-.058-1.866-.058-.884 0-1.464.002-1.867.058Zm-.367 1.097c-.063-.027.204-.387.991-.999-.534.72-.927 1.026-.99.999Zm5.46 0c-.064.027-.458-.279-.991-.999.787.612 1.054.972.99.999ZM2.34 1.684c.286.022.292.378-.839.998-.012-.711.554-1.021.84-.998Zm3.82 0c.286-.023.851.287.84.998-1.132-.62-1.126-.976-.84-.998ZM8.5 8.75a.75.75 0 0 0-1.5 0v6a.75.75 0 0 0 1.5 0v-6ZM10.75 14a.75.75 0 0 0 0 1.5h1a.75.75 0 0 0 0-1.5h-1Zm4 0a.75.75 0 0 0 0 1.5h1a.75.75 0 0 0 0-1.5h-1Zm4 0a.75.75 0 0 0 0 1.5h1a.75.75 0 0 0 0-1.5h-1Z"></path></symbol><symbol id="bfs-signal-low-02"><path fill="none" d="M0 0h19.5v6.5H0V0Z"></path><path fill="#141B34" fill-rule="evenodd" d="M2.75 0h-.045c-.433 0-.83 0-1.152.043-.356.048-.731.16-1.04.47-.31.309-.422.684-.47 1.04C0 1.876 0 2.273 0 2.705v1.09c0 .433 0 .83.043 1.152.048.356.16.731.47 1.04.309.31.684.422 1.04.47.323.043.72.043 1.152.043h.09c.433 0 .83 0 1.152-.043.356-.048.731-.16 1.04-.47.31-.309.422-.684.47-1.04.043-.323.043-.72.043-1.152v-1.09c0-.433 0-.83-.043-1.152-.048-.356-.16-.731-.47-1.04-.309-.31-.684-.422-1.04-.47C3.624 0 3.227 0 2.795 0H2.75Zm-.177 1.574-.295.466-.09.148-.615.385.572-.428.427-.572Zm-1.001.002.001-.003.003-.001a.705.705 0 0 1 .177-.042c.21-.028.504-.03.997-.03s.787.002.997.03a.705.705 0 0 1 .177.042l.003.001.001.003a.706.706 0 0 1 .042.177c.028.21.03.504.03.997v1c0 .493-.002.787-.03.997a.706.706 0 0 1-.042.177l-.001.003-.003.001a.706.706 0 0 1-.177.042c-.21.028-.504.03-.997.03s-.787-.002-.997-.03a.706.706 0 0 1-.177-.042l-.003-.001-.001-.003a.705.705 0 0 1-.042-.177c-.028-.21-.03-.504-.03-.997v-1c0-.493.002-.787.03-.997a.705.705 0 0 1 .042-.177ZM4.42 5.458l.014-.023.491-.509-.265.322-.19.237-.224.176-.32.265.494-.468Zm.506-2.885-1-1 .432.35.568.65Zm-3.123-.222-.23.222 1-1-.77.778ZM8.75 5a.75.75 0 0 0 0 1.5h3a.75.75 0 0 0 0-1.5h-3Zm7 0a.75.75 0 0 0 0 1.5h3a.75.75 0 0 0 0-1.5h-3Z"></path></symbol><symbol id="bfs-signal-low-medium"><path fill="none" d="M0 0h21.5v15.5H0V0Z"></path><path fill="#141B34" fill-rule="evenodd" d="M3.75 0h-.057c-.81 0-1.497 0-2.016.072C1.153.145.555.322.223.897c-.052.09-.096.185-.132.282-.226.614.008 1.19.276 1.65.274.47.715 1.034 1.237 1.705l.746.958c.172.22.35.452.523.618.038.037.08.076.128.113v8.527a.75.75 0 0 0 1.5 0V6.223c.047-.037.09-.076.127-.113.173-.166.35-.397.523-.618l.746-.958c.522-.671.963-1.235 1.237-1.705.268-.46.502-1.036.276-1.65a1.827 1.827 0 0 0-.132-.282C6.947.322 6.348.145 5.825.072 5.305 0 4.618 0 3.808 0H3.75ZM1.885 1.558c-.248.035-.34.08-.366.097a.327.327 0 0 0-.017.036c0 .029.017.135.162.383.21.361.574.83 1.125 1.538l.746.958c.086.11.155.2.217.275l.216-.275.746-.958c.55-.707.914-1.177 1.125-1.538C5.983 1.826 6 1.72 6 1.69a.328.328 0 0 0-.016-.036c-.027-.018-.118-.062-.367-.097-.403-.056-.983-.058-1.866-.058-.884 0-1.464.002-1.867.058Zm-.367 1.097c-.063-.027.204-.387.991-.999-.534.72-.927 1.026-.99.999Zm5.46 0c-.064.027-.458-.279-.991-.999.787.612 1.054.972.99.999ZM2.34 1.684c.286.022.292.378-.839.998-.012-.711.554-1.021.84-.998Zm3.82 0c.286-.023.851.287.84.998-1.132-.62-1.126-.976-.84-.998ZM12.5 6.75a.75.75 0 0 0-1.5 0v8a.75.75 0 0 0 1.5 0v-8Zm-4 2a.75.75 0 0 0-1.5 0v6a.75.75 0 0 0 1.5 0v-6ZM15.75 14a.75.75 0 0 0 0 1.5h1a.75.75 0 0 0 0-1.5h-1Zm4 0a.75.75 0 0 0 0 1.5h1a.75.75 0 0 0 0-1.5h-1Z"></path></symbol><symbol id="bfs-signal-medium-01"><path fill="none" d="M0 0h21.5v15.5H0V0Z"></path><path fill="#141B34" fill-rule="evenodd" d="M3.75 0h-.057c-.81 0-1.497 0-2.016.072C1.153.145.555.322.223.897c-.052.09-.096.185-.132.282-.226.614.008 1.19.276 1.65.274.47.715 1.034 1.237 1.705l.746.958c.172.22.35.452.523.618.038.037.08.076.128.113v8.527a.75.75 0 0 0 1.5 0V6.223c.047-.037.09-.076.127-.113.173-.166.35-.397.523-.618l.746-.958c.522-.671.963-1.235 1.237-1.705.268-.46.502-1.036.276-1.65a1.827 1.827 0 0 0-.132-.282C6.947.322 6.348.145 5.825.072 5.305 0 4.618 0 3.808 0H3.75ZM1.885 1.558c-.248.035-.34.08-.366.097a.327.327 0 0 0-.017.036c0 .029.017.135.162.383.21.361.574.83 1.125 1.538l.746.958c.086.11.155.2.217.275l.216-.275.746-.958c.55-.707.914-1.177 1.125-1.538C5.983 1.826 6 1.72 6 1.69a.328.328 0 0 0-.016-.036c-.027-.018-.118-.062-.367-.097-.403-.056-.983-.058-1.866-.058-.884 0-1.464.002-1.867.058Zm-.367 1.097c-.063-.027.204-.387.991-.999-.534.72-.927 1.026-.99.999Zm5.46 0c-.064.027-.458-.279-.991-.999.787.612 1.054.972.99.999ZM2.34 1.684c.286.022.292.378-.839.998-.012-.711.554-1.021.84-.998Zm3.82 0c.286-.023.851.287.84.998-1.132-.62-1.126-.976-.84-.998ZM16.5 5.75a.75.75 0 0 0-1.5 0v9a.75.75 0 0 0 1.5 0v-9Zm-4 1a.75.75 0 0 0-1.5 0v8a.75.75 0 0 0 1.5 0v-8Zm-4 2a.75.75 0 0 0-1.5 0v6a.75.75 0 0 0 1.5 0v-6ZM19.75 14a.75.75 0 0 0 0 1.5h1a.75.75 0 0 0 0-1.5h-1Z"></path></symbol><symbol id="bfs-signal-no-01"><path fill="none" d="M0 0h20.5v15.5H0V0Z"></path><path fill="#141B34" fill-rule="evenodd" d="M3.75 0h-.057c-.81 0-1.497 0-2.016.072C1.153.145.555.322.223.897c-.052.09-.096.185-.132.282-.226.614.008 1.19.276 1.65.274.47.715 1.034 1.237 1.705l.746.958c.172.22.35.452.523.618.038.037.08.076.128.113v8.527a.75.75 0 0 0 1.5 0V6.223c.047-.037.09-.076.127-.113.173-.166.35-.397.523-.618l.746-.958c.522-.671.963-1.235 1.237-1.705.268-.46.502-1.036.276-1.65a1.827 1.827 0 0 0-.132-.282C6.947.322 6.348.145 5.825.072 5.305 0 4.618 0 3.808 0H3.75ZM1.885 1.558c-.248.035-.34.08-.366.097a.327.327 0 0 0-.017.036c0 .029.017.135.162.383.21.361.574.83 1.125 1.538l.746.958c.086.11.155.2.217.275l.216-.275.746-.958c.55-.707.914-1.177 1.125-1.538C5.983 1.826 6 1.72 6 1.69a.328.328 0 0 0-.016-.036c-.027-.018-.118-.062-.367-.097-.403-.056-.983-.058-1.866-.058-.884 0-1.464.002-1.867.058Zm-.367 1.097c-.063-.027.204-.387.991-.999-.534.72-.927 1.026-.99.999Zm5.46 0c-.064.027-.458-.279-.991-.999.787.612 1.054.972.99.999ZM2.34 1.684c.286.022.292.378-.839.998-.012-.711.554-1.021.84-.998Zm3.82 0c.286-.023.851.287.84.998-1.132-.62-1.126-.976-.84-.998Zm5.55 2.536a.75.75 0 1 0-1.06 1.06l2.47 2.47-2.47 2.47a.75.75 0 1 0 1.06 1.06l2.47-2.47 2.47 2.47a.75.75 0 1 0 1.06-1.06l-2.47-2.47 2.47-2.47a.75.75 0 0 0-1.06-1.06l-2.47 2.47-2.47-2.47ZM6.75 14a.75.75 0 0 0 0 1.5h1a.75.75 0 0 0 0-1.5h-1Zm4 0a.75.75 0 0 0 0 1.5h1a.75.75 0 0 0 0-1.5h-1Zm4 0a.75.75 0 0 0 0 1.5h1a.75.75 0 0 0 0-1.5h-1Zm4 0a.75.75 0 0 0 0 1.5h1a.75.75 0 0 0 0-1.5h-1Z"></path></symbol><symbol id="bfs-signal-no-02"><path fill="none" d="M0 0h19.5v15.5H0V0Z"></path><path fill="#141B34" fill-rule="evenodd" d="M5.78.22a.75.75 0 1 0-1.06 1.06l3.47 3.47-3.47 3.47a.75.75 0 0 0 1.06 1.06l3.47-3.47 3.47 3.47a.75.75 0 1 0 1.06-1.06l-3.47-3.47 3.47-3.47A.75.75 0 0 0 12.72.22L9.25 3.69 5.78.22ZM.75 14a.75.75 0 0 0 0 1.5h3a.75.75 0 0 0 0-1.5h-3Zm7.5 0a.75.75 0 0 0 0 1.5h3a.75.75 0 0 0 0-1.5h-3Zm7.5 0a.75.75 0 0 0 0 1.5h3a.75.75 0 0 0 0-1.5h-3Z"></path></symbol><symbol id="bfs-smartphone-lost-wifi"><g clip-path="url(#b)"><path fill="none" d="M0 0h24v24H0V0Z"></path><g fill="#141B34" fill-rule="evenodd"><path d="M8.014 6.75a.75.75 0 0 0-.028-1.5c-1.587.03-2.84.145-3.716 1.037-.563.573-.802 1.292-.913 2.136-.107.812-.107 1.843-.107 3.118v4.91c0 1.275 0 2.306.107 3.118.111.844.35 1.563.913 2.136.565.575 1.276.821 2.11.936.8.109 1.815.109 3.063.109h.114c1.248 0 2.263 0 3.062-.11.835-.114 1.546-.36 2.11-.935.564-.573.803-1.292.914-2.136.107-.812.107-1.844.107-3.12v-2.953a.75.75 0 1 0-1.5 0v2.901c0 1.342-.002 2.274-.094 2.976-.09.682-.254 1.034-.497 1.281-.24.245-.58.41-1.243.5-.686.094-1.598.096-2.916.096-1.318 0-2.23-.002-2.916-.096-.663-.09-1.003-.255-1.243-.5-.243-.247-.407-.599-.497-1.281-.092-.702-.094-1.634-.094-2.976v-4.802c0-1.342.002-2.274.094-2.976.09-.682.254-1.034.497-1.281.389-.396 1.006-.558 2.673-.588Z"></path><path d="M8.5 19a1 1 0 0 1 1-1h.009a1 1 0 1 1 0 2H9.5a1 1 0 0 1-1-1Zm6.05-16.235c.152-.01.304-.015.457-.015 1.65 0 3.202.607 4.52 1.679a.75.75 0 1 0 .946-1.164C18.92 2.001 17.041 1.25 15.007 1.25c-.187 0-.373.006-.558.019a.75.75 0 0 0 .102 1.496Zm-2.61.72a.75.75 0 1 0-.67-1.341c-.617.308-1.2.69-1.744 1.133a.75.75 0 1 0 .948 1.162 7.913 7.913 0 0 1 1.467-.954Zm.739 4.151a4.37 4.37 0 0 1 2.328-.685v-1.5a5.87 5.87 0 0 0-3.122.913.75.75 0 1 0 .794 1.272Z"></path><path d="M10.47 1.47a.75.75 0 0 1 1.06 0l7 7a.75.75 0 0 1-1.06 1.06l-7-7a.75.75 0 0 1 0-1.06ZM14 10a1 1 0 0 1 1-1h.006a1 1 0 0 1 0 2H15a1 1 0 0 1-1-1Z"></path></g></g></symbol><symbol id="bfs-smartphone-wifi"><g clip-path="url(#b)"><path fill="none" d="M0 0h24v24H0V0Z"></path><g fill="#141B34" fill-rule="evenodd"><path d="M8.014 6.75a.75.75 0 0 0-.028-1.5c-1.587.03-2.84.145-3.716 1.037-.563.573-.802 1.292-.913 2.136-.107.812-.107 1.843-.107 3.118v4.91c0 1.275 0 2.306.107 3.118.111.844.35 1.563.913 2.136.565.575 1.276.821 2.11.936.8.109 1.815.109 3.063.109h.114c1.248 0 2.263 0 3.062-.11.835-.114 1.546-.36 2.11-.935.564-.573.803-1.292.914-2.136.107-.812.107-1.844.107-3.12v-2.953a.75.75 0 1 0-1.5 0v2.901c0 1.342-.002 2.274-.094 2.976-.09.682-.254 1.034-.497 1.281-.24.245-.58.41-1.243.5-.686.094-1.598.096-2.916.096-1.318 0-2.23-.002-2.916-.096-.663-.09-1.003-.255-1.243-.5-.243-.247-.407-.599-.497-1.281-.092-.702-.094-1.634-.094-2.976v-4.802c0-1.342.002-2.274.094-2.976.09-.682.254-1.034.497-1.281.389-.396 1.006-.558 2.673-.588Z"></path><path d="M8.5 19a1 1 0 0 1 1-1h.009a1 1 0 1 1 0 2H9.5a1 1 0 0 1-1-1Zm6.493-17.75c-2.034 0-3.912.751-5.466 2.015a.75.75 0 0 0 .946 1.164c1.318-1.072 2.87-1.679 4.52-1.679 1.656 0 3.212.61 4.533 1.69a.75.75 0 1 0 .948-1.163c-1.556-1.271-3.44-2.027-5.48-2.027Zm0 4.2a5.86 5.86 0 0 0-3.107.905.75.75 0 1 0 .79 1.275 4.367 4.367 0 0 1 2.317-.68 4.37 4.37 0 0 1 2.328.686.75.75 0 1 0 .794-1.272 5.869 5.869 0 0 0-3.122-.913ZM14 10a1 1 0 0 1 1-1h.006a1 1 0 0 1 0 2H15a1 1 0 0 1-1-1Z"></path></g></g></symbol><symbol id="bfs-wifi-01"><path fill="none" d="M0 0h21.5v16.5H0V0Z"></path><path fill="#141B34" fill-rule="evenodd" d="M21.234 4.177C17.964 1.416 14.376 0 10.75 0 7.124 0 3.536 1.416.266 4.177a.75.75 0 1 0 .968 1.146C4.28 2.751 7.534 1.5 10.75 1.5s6.47 1.25 9.516 3.823a.75.75 0 0 0 .968-1.146Zm-3.487 3.011c-4.06-3.591-9.708-3.572-13.977-.014a.75.75 0 0 0 .96 1.152c3.73-3.109 8.547-3.09 12.023-.014a.75.75 0 0 0 .994-1.124ZM15.03 10.22c-2.293-2.293-6.267-2.293-8.56 0a.75.75 0 1 0 1.06 1.06c1.707-1.707 4.733-1.707 6.44 0a.75.75 0 1 0 1.06-1.06ZM10.75 12a2.25 2.25 0 1 0 0 4.5 2.25 2.25 0 0 0 0-4.5ZM10 14.25a.75.75 0 1 1 1.5 0 .75.75 0 0 1-1.5 0Z"></path></symbol><symbol id="bfs-wifi-02"><g clip-path="url(#b)"><path fill="none" d="M0 0h24v24H0V0Z"></path><g fill="#141B34" fill-rule="evenodd"><path d="M11 18.5a1 1 0 0 1 1-1h.012a1 1 0 1 1 0 2H12a1 1 0 0 1-1-1Zm5.28-3.53c-2.293-2.293-6.267-2.293-8.56 0a.75.75 0 1 0 1.06 1.06c1.707-1.707 4.733-1.707 6.44 0a.75.75 0 1 0 1.06-1.06Z"></path><path d="M18.997 11.938c-4.06-3.591-9.708-3.572-13.977-.014a.75.75 0 0 0 .96 1.152c3.73-3.109 8.547-3.09 12.023-.014a.75.75 0 0 0 .994-1.124Z"></path><path d="M22.484 8.927C19.214 6.166 15.626 4.75 12 4.75c-3.626 0-7.214 1.416-10.484 4.177a.75.75 0 1 0 .968 1.146C5.53 7.501 8.784 6.25 12 6.25s6.47 1.25 9.516 3.823a.75.75 0 0 0 .968-1.146Z"></path></g></g></symbol><symbol id="bfs-wifi-circle"><g clip-path="url(#b)"><path fill="none" d="M0 0h24v24H0V0Z"></path><g fill="#141B34" fill-rule="evenodd"><path d="M12 1.25C6.063 1.25 1.25 6.063 1.25 12S6.063 22.75 12 22.75 22.75 17.937 22.75 12 17.937 1.25 12 1.25ZM2.75 12a9.25 9.25 0 1 1 18.5 0 9.25 9.25 0 0 1-18.5 0Z"></path><path d="M11.995 8.25A7.534 7.534 0 0 0 7.56 9.706a.75.75 0 1 0 .878 1.215 6.034 6.034 0 0 1 3.556-1.171c1.31 0 2.533.43 3.564 1.178a.75.75 0 1 0 .882-1.213 7.535 7.535 0 0 0-4.446-1.465Zm0 3.432c-.912 0-1.773.237-2.532.656a.75.75 0 0 0 .724 1.313 3.725 3.725 0 0 1 1.808-.47c.65 0 1.266.17 1.816.475a.75.75 0 0 0 .727-1.312 5.227 5.227 0 0 0-2.543-.662ZM11 16a1 1 0 0 1 1-1h.006a1 1 0 0 1 0 2H12a1 1 0 0 1-1-1Z"></path></g></g></symbol><symbol id="bfs-wifi-connected-01"><path fill="none" d="M0 0h21.5v20.5H0V0Z"></path><path fill="#141B34" fill-rule="evenodd" d="m8.186 15.825-.48-.7c2.168-.92 4.578-.825 6.695.289a.75.75 0 0 0 .958-.226L19.87 8.92l.001-.001c.524-.715.97-1.32 1.253-1.87.302-.586.452-1.172.338-1.847-.223-1.328-1.196-1.914-2.38-2.692A15.11 15.11 0 0 0 10.75 0C7.692 0 4.837.92 2.418 2.51 1.234 3.288.26 3.874.038 5.202c-.114.675.037 1.26.338 1.847.282.549.727 1.153 1.25 1.866l5.33 7.768a.643.643 0 0 0 .013.02c.717.977 1.302 1.778 1.837 2.324.545.556 1.156.973 1.944.973a.75.75 0 0 0 0-1.5c-.195 0-.44-.082-.872-.523-.44-.45-.95-1.141-1.692-2.152ZM3.242 3.764A13.61 13.61 0 0 1 10.75 1.5c2.75 0 5.322.826 7.509 2.264 1.34.88 1.63 1.123 1.724 1.687.046.271.005.526-.193.912-.151.295-.373.626-.683 1.057-5.243-3.227-11.47-3.227-16.714 0-.31-.43-.532-.762-.683-1.057-.198-.386-.239-.641-.193-.912.095-.564.384-.807 1.725-1.687Zm.02 4.883c4.71-2.86 10.25-2.863 14.963-.008l-1.296 1.8a13.98 13.98 0 0 0-12.418.03l-1.25-1.822Zm2.107 3.073a12.476 12.476 0 0 1 10.67-.044l-1.53 2.125a9.226 9.226 0 0 0-7.666.067L5.37 11.72ZM21 14.457a.75.75 0 0 0-.5-1.414c-.835.296-1.647.866-2.373 1.503-.734.643-1.423 1.393-2.012 2.099-.53.635-.986 1.243-1.327 1.72-.343-.466-.684-.78-.997-.989a2.382 2.382 0 0 0-.663-.316 1.642 1.642 0 0 0-.365-.06h-.011c-.001 0-.002 0-.002.75V17a.75.75 0 0 0-.05 1.498l.016.004a.9.9 0 0 1 .243.122c.243.162.665.55 1.12 1.461a.75.75 0 0 0 1.304.067l.002-.002.005-.009.025-.039.101-.153a28.262 28.262 0 0 1 1.75-2.344c.56-.67 1.194-1.357 1.85-1.932.663-.582 1.308-1.012 1.884-1.216Z"></path></symbol><symbol id="bfs-wifi-connected-02"><path fill="none" d="M0 0h21.5v17.75H0V0Z"></path><path fill="#141B34" fill-rule="evenodd" d="M21.234 4.177C17.964 1.416 14.376 0 10.75 0 7.124 0 3.536 1.416.266 4.177a.75.75 0 1 0 .968 1.146C4.28 2.751 7.534 1.5 10.75 1.5s6.47 1.25 9.516 3.823a.75.75 0 0 0 .968-1.146Zm-3.487 3.511c-4.06-3.591-9.708-3.572-13.977-.014a.75.75 0 0 0 .96 1.152c3.73-3.109 8.547-3.09 12.023-.014a.75.75 0 0 0 .994-1.124Zm-2.595 4.196a.75.75 0 0 0-.804-1.266c-1.372.87-2.686 2.328-3.631 3.516-.361.454-.676.878-.929 1.231-.343-.466-.684-.78-.997-.989a2.381 2.381 0 0 0-.663-.316 1.646 1.646 0 0 0-.365-.06H7.75l-.001.75V14a.75.75 0 0 0-.05 1.498l.016.005c.035.01.12.04.243.121.243.162.665.55 1.12 1.461a.75.75 0 0 0 1.304.067l.001-.001c0-.002.002-.004.005-.007l.019-.03.079-.12a29.034 29.034 0 0 1 1.404-1.926c.924-1.162 2.11-2.454 3.26-3.184Zm-5.073 4.866-1 1 1-1Z"></path></symbol><symbol id="bfs-wifi-connected-03"><g clip-path="url(#b)"><path fill="none" d="M0 0h24v24H0V0Z"></path><path fill="#141B34" fill-rule="evenodd" d="M11 20a1 1 0 0 1 1-1h.012a1 1 0 1 1 0 2H12a1 1 0 0 1-1-1ZM22.402 4.633a.75.75 0 0 0-.804-1.266c-1.372.87-2.686 2.328-3.631 3.516-.361.454-.676.878-.929 1.231-.343-.466-.684-.78-.997-.989a2.381 2.381 0 0 0-.663-.316 1.644 1.644 0 0 0-.366-.06h-.01L15 7.5v-.75a.75.75 0 0 0-.05 1.498l.016.004a.9.9 0 0 1 .243.122c.243.162.665.55 1.12 1.461a.75.75 0 0 0 1.304.067l.001-.001a1.203 1.203 0 0 1 .024-.037l.079-.12a29.031 29.031 0 0 1 1.404-1.926c.924-1.162 2.11-2.454 3.26-3.184ZM12 6.25c-3.626 0-7.214 1.416-10.484 4.177a.75.75 0 1 0 .968 1.146C5.53 9.001 8.784 7.75 12 7.75a.75.75 0 0 0 0-1.5Zm6.997 7.188c-4.06-3.591-9.708-3.572-13.977-.014a.75.75 0 1 0 .96 1.152c3.73-3.109 8.547-3.09 12.023-.014a.75.75 0 1 0 .994-1.124ZM16.28 16.47c-2.293-2.293-6.267-2.293-8.56 0a.75.75 0 1 0 1.06 1.06c1.707-1.707 4.733-1.707 6.44 0a.75.75 0 1 0 1.06-1.06Z"></path></g></symbol><symbol id="bfs-wifi-disconnected-01"><path fill="none" d="M0 0h21.5v16.5H0V0Z"></path><path fill="#141B34" fill-rule="evenodd" d="M21.234 4.177C17.964 1.416 14.376 0 10.75 0 7.124 0 3.536 1.416.266 4.177a.75.75 0 1 0 .968 1.146C4.28 2.751 7.534 1.5 10.75 1.5s6.47 1.25 9.516 3.823a.75.75 0 0 0 .968-1.146Zm-6.122 1.949C11.4 4.08 7.094 4.846 3.72 8.22a.75.75 0 0 0 1.06 1.06c2.973-2.972 6.564-3.518 9.608-1.84a.75.75 0 0 0 .724-1.314ZM14.28 9.22a.75.75 0 1 0-1.06 1.06l2.47 2.47-2.47 2.47a.75.75 0 1 0 1.06 1.06l2.47-2.47 2.47 2.47a.75.75 0 1 0 1.06-1.06l-2.47-2.47 2.47-2.47a.75.75 0 1 0-1.06-1.06l-2.47 2.47-2.47-2.47Zm-3.95 2.303a.75.75 0 0 0-.16-1.492c-1.255.134-2.467.705-3.45 1.689a.75.75 0 1 0 1.06 1.06c.75-.749 1.646-1.16 2.55-1.257Z"></path></symbol><symbol id="bfs-wifi-disconnected-02"><path fill="none" d="M0 0h21.5v17.5H0V0Z"></path><path fill="#141B34" fill-rule="evenodd" d="M21.234 4.177C17.964 1.416 14.376 0 10.75 0 7.124 0 3.536 1.416.266 4.177a.75.75 0 1 0 .968 1.146C4.28 2.751 7.534 1.5 10.75 1.5s6.47 1.25 9.516 3.823a.75.75 0 0 0 .968-1.146Zm-3.438 5.059C15.79 7.106 13.349 6 10.837 6c-2.509 0-5 1.103-7.117 3.22a.75.75 0 1 0 1.06 1.06C6.663 8.397 8.788 7.5 10.837 7.5c2.046 0 4.106.894 5.867 2.764a.75.75 0 1 0 1.092-1.028ZM8.781 11.22a.75.75 0 0 0-1.061 1.06l1.97 1.97-1.97 1.97a.75.75 0 1 0 1.06 1.06l1.97-1.97 1.97 1.97a.75.75 0 0 0 1.06-1.06l-1.97-1.97 1.97-1.97a.75.75 0 1 0-1.06-1.06l-1.97 1.97-1.97-1.97Z"></path></symbol><symbol id="bfs-wifi-disconnected-03"><g clip-path="url(#b)"><path fill="none" d="M0 0h24v24H0V0Z"></path><g fill="#141B34" fill-rule="evenodd"><path d="M11 18a1 1 0 0 1 1-1h.012a1 1 0 1 1 0 2H12a1 1 0 0 1-1-1Zm5.28-3.53c-2.293-2.293-6.267-2.293-8.56 0a.75.75 0 1 0 1.06 1.06c1.707-1.707 4.733-1.707 6.44 0a.75.75 0 1 0 1.06-1.06Zm-2.126-5.505c-3.107-.653-6.408.187-9.134 2.459a.75.75 0 0 0 .96 1.152c2.401-2 5.24-2.695 7.866-2.143a.75.75 0 0 0 .308-1.468Zm4.596 2.26a.75.75 0 0 0-.962 1.152c.072.06.144.122.215.185a.75.75 0 0 0 .994-1.124 11.76 11.76 0 0 0-.247-.212ZM13.057 4.29c-3.98-.302-7.951 1.106-11.54 4.137a.75.75 0 1 0 .967 1.146c3.341-2.822 6.935-4.055 10.46-3.787a.75.75 0 1 0 .113-1.496Z"></path><path d="M16.53 4.47a.75.75 0 1 0-1.06 1.06L17.94 8l-2.47 2.47a.75.75 0 0 0 1.06 1.06L19 9.06l2.47 2.47a.75.75 0 1 0 1.06-1.06L20.06 8l2.47-2.47a.75.75 0 0 0-1.06-1.06L19 6.94l-2.47-2.47Z"></path></g></g></symbol><symbol id="bfs-wifi-disconnected-04"><path fill="none" d="M0 0h21.5v19.5H0V0Z"></path><path fill="#141B34" fill-rule="evenodd" d="M3.242 3.764A13.61 13.61 0 0 1 10.75 1.5c2.75 0 5.322.826 7.509 2.264 1.34.88 1.63 1.123 1.724 1.687.046.271.005.526-.193.912-.216.42-.576.916-1.128 1.668l-1.507 1.96a.75.75 0 0 0 1.19.915l1.512-1.968.006-.007.005-.007c.525-.717.973-1.324 1.256-1.875.302-.586.452-1.172.338-1.847-.223-1.328-1.196-1.914-2.38-2.692A15.11 15.11 0 0 0 10.75 0C7.692 0 4.837.92 2.418 2.51 1.234 3.288.26 3.874.038 5.202c-.114.675.037 1.26.338 1.847.283.551.731 1.158 1.257 1.875l5.336 7.279c.717.977 1.302 1.778 1.837 2.324.545.556 1.156.973 1.944.973a.75.75 0 0 0 0-1.5c-.195 0-.44-.082-.872-.523-.442-.45-.954-1.145-1.699-2.162L2.842 8.038c-.554-.755-.915-1.253-1.132-1.674-.198-.386-.239-.641-.193-.912.095-.564.384-.807 1.725-1.687ZM14.28 12.22a.75.75 0 1 0-1.061 1.06l2.47 2.47-2.47 2.47a.75.75 0 1 0 1.06 1.06l2.47-2.47 2.47 2.47a.75.75 0 1 0 1.06-1.06l-2.47-2.47 2.47-2.47a.75.75 0 1 0-1.06-1.06l-2.47 2.47-2.47-2.47Z"></path></symbol><symbol id="bfs-wifi-error-01"><path fill="none" d="M0 0h21.5v19.5H0V0Z"></path><path fill="#141B34" fill-rule="evenodd" d="M21.234 4.177C17.964 1.416 14.376 0 10.75 0 7.124 0 3.536 1.416.266 4.177a.75.75 0 1 0 .968 1.146C4.28 2.751 7.534 1.5 10.75 1.5s6.47 1.25 9.516 3.823a.75.75 0 0 0 .968-1.146Zm-3.487 3.011c-4.06-3.591-9.708-3.572-13.977-.014a.75.75 0 0 0 .96 1.152c3.73-3.109 8.547-3.09 12.023-.014a.75.75 0 0 0 .994-1.124ZM11.42 9.074a3.06 3.06 0 0 0-1.34 0c-.732.164-1.267.672-1.745 1.305-.477.63-.991 1.518-1.633 2.621-.594 1.023-1.077 1.85-1.366 2.527-.29.676-.46 1.362-.227 2.045.139.409.374.778.683 1.082.506.497 1.194.678 1.953.763.753.083 1.735.083 2.958.083h.095c1.223 0 2.204 0 2.957-.083.759-.085 1.447-.266 1.953-.763.31-.304.544-.673.683-1.082.233-.683.063-1.369-.226-2.045-.29-.676-.773-1.504-1.367-2.527-.642-1.103-1.156-1.99-1.633-2.621-.478-.633-1.013-1.14-1.745-1.305Zm-1.011 1.464c.224-.05.458-.05.682 0 .208.046.47.205.877.745.41.541.872 1.334 1.533 2.471.615 1.058 1.04 1.792 1.284 2.364.245.572.236.823.186.97a1.267 1.267 0 0 1-.314.496c-.137.134-.402.268-1.067.342-.66.073-1.559.074-2.84.074s-2.18-.001-2.84-.074c-.665-.074-.93-.208-1.067-.342a1.268 1.268 0 0 1-.314-.495c-.05-.148-.06-.399.186-.971.244-.572.67-1.306 1.284-2.364.661-1.137 1.124-1.93 1.533-2.471.408-.54.669-.699.877-.745ZM11.5 12.75a.75.75 0 0 0-1.5 0v1.5a.75.75 0 0 0 1.5 0v-1.5Zm-.75 2.75a.75.75 0 0 0 0 1.5h.009a.75.75 0 0 0 0-1.5h-.009Z"></path></symbol><symbol id="bfs-wifi-error-02"><g clip-path="url(#b)"><path fill="none" d="M0 0h24v24H0V0Z"></path><path fill="#141B34" fill-rule="evenodd" d="M10.005 16.681a.75.75 0 0 0-.629-1.362 5.74 5.74 0 0 0-1.656 1.15.75.75 0 1 0 1.06 1.061c.357-.357.773-.64 1.225-.849Zm4.619-1.362a.75.75 0 0 0-.63 1.362c.453.209.869.492 1.226.85a.75.75 0 1 0 1.06-1.061 5.74 5.74 0 0 0-1.656-1.15Zm.607-4.033a.75.75 0 0 0-.462 1.428 9.283 9.283 0 0 1 3.239 1.852.75.75 0 0 0 .985-1.132 10.784 10.784 0 0 0-3.762-2.148Zm-5.994 1.472a.75.75 0 0 0-.474-1.424 11.754 11.754 0 0 0-3.739 2.086.75.75 0 1 0 .952 1.16 10.254 10.254 0 0 1 3.26-1.822ZM8.221 8.217a.75.75 0 1 0-.442-1.433c-2.185.674-4.292 1.979-6.263 3.643a.75.75 0 0 0 .968 1.146C4.358 9.991 6.29 8.813 8.22 8.217Zm8-1.433a.75.75 0 1 0-.442 1.433c1.931.596 3.863 1.774 5.737 3.356a.75.75 0 0 0 .968-1.146c-1.971-1.664-4.079-2.97-6.263-3.643ZM11 20a1 1 0 0 1 1-1h.012a1 1 0 0 1 0 2H12a1 1 0 0 1-1-1Zm2.905-16.352c-1.13-.53-2.68-.53-3.81 0-.714.336-.919 1.087-.821 1.668l1.986 11.808a.75.75 0 0 0 1.48 0l1.986-11.808c.098-.581-.107-1.333-.82-1.668Zm-3.154 1.364.002-.016c.72-.328 1.774-.328 2.493 0l.003.016a.206.206 0 0 1-.002.055L12 12.48l-1.247-7.412a.207.207 0 0 1-.002-.055Z"></path></g></symbol><symbol id="bfs-wifi-error-fixed-02"><path fill="none" d="M0 0h24v24H0V0Z"></path><path fill="#141B34" fill-rule="evenodd" d="M10.005 16.68a.75.75 0 1 0-.629-1.36 5.74 5.74 0 0 0-1.656 1.15.75.75 0 0 0 1.06 1.06c.357-.357.773-.64 1.225-.85Zm4.619-1.36a.75.75 0 1 0-.63 1.36c.453.21.869.494 1.226.85a.75.75 0 1 0 1.06-1.06 5.74 5.74 0 0 0-1.656-1.15Zm.607-4.033a.75.75 0 1 0-.462 1.427 9.284 9.284 0 0 1 3.239 1.852.75.75 0 0 0 .985-1.132 10.785 10.785 0 0 0-3.762-2.147Zm-5.994 1.47a.75.75 0 1 0-.474-1.423 11.753 11.753 0 0 0-3.739 2.086.75.75 0 1 0 .952 1.16 10.256 10.256 0 0 1 3.26-1.822Zm-1.016-4.54a.75.75 0 1 0-.442-1.433c-2.185.674-4.292 1.979-6.263 3.643a.75.75 0 0 0 .968 1.146C4.358 9.991 6.29 8.813 8.22 8.217Zm8-1.433a.75.75 0 1 0-.442 1.433c1.931.596 3.863 1.774 5.737 3.356a.75.75 0 0 0 .968-1.146c-1.971-1.664-4.079-2.97-6.263-3.643ZM11 20a1 1 0 0 1 1-1h.012a1 1 0 1 1 0 2H12a1 1 0 0 1-1-1Zm2.905-16.352c-1.13-.53-2.68-.53-3.81 0-.714.336-.919 1.087-.821 1.668l1.986 11.809a.75.75 0 0 0 1.48 0l1.986-11.809c.098-.581-.107-1.332-.82-1.668Zm-3.154 1.364c0-.007.002-.012.003-.016.719-.328 1.773-.328 2.492 0l.003.016a.207.207 0 0 1-.002.055L12 12.48l-1.247-7.412a.202.202 0 0 1-.002-.055Z"></path></symbol><symbol id="bfs-wifi-full-signal"><path fill="none" d="M0 0h21.5v19.5H0V0Z"></path><path fill="#141B34" fill-rule="evenodd" d="m19.867 8.924-2.36 3.22-.151.244-.02-.012-2.805 3.827c-.717.977-1.302 1.778-1.837 2.324-.545.556-1.156.973-1.944.973s-1.399-.416-1.944-.973c-.535-.546-1.12-1.347-1.837-2.325l-2.805-3.826-.02.012-.15-.243-2.361-3.22C1.107 8.206.659 7.6.376 7.048.075 6.463-.076 5.877.038 5.202.26 3.874 1.234 3.288 2.418 2.51A15.11 15.11 0 0 1 10.75 0c3.058 0 5.913.92 8.332 2.51 1.184.778 2.157 1.364 2.38 2.692.114.675-.036 1.26-.338 1.847-.283.551-.731 1.158-1.256 1.875ZM3.242 3.764A13.61 13.61 0 0 1 10.75 1.5c2.75 0 5.322.826 7.509 2.264 1.34.88 1.63 1.123 1.724 1.687.046.271.005.526-.193.912-.151.295-.373.626-.683 1.057-5.243-3.227-11.47-3.227-16.714 0-.31-.43-.532-.762-.683-1.057-.198-.386-.239-.641-.193-.912.095-.564.384-.807 1.725-1.687Zm.039 4.871c4.705-2.847 10.233-2.847 14.938 0l-1.314 1.793a13.979 13.979 0 0 0-12.31 0L3.281 8.635Zm2.217 3.024a12.476 12.476 0 0 1 10.504 0l-1.551 2.116a9.22 9.22 0 0 0-7.401 0L5.498 11.66Zm2.466 3.362a7.706 7.706 0 0 1 5.573 0l-.216.294c-.745 1.017-1.257 1.711-1.698 2.162-.432.441-.678.523-.873.523-.195 0-.44-.082-.872-.523-.442-.45-.954-1.145-1.699-2.162l-.215-.293Z"></path></symbol><symbol id="bfs-wifi-location"><g clip-path="url(#b)"><path fill="none" d="M0 0h24v24H0V0Z"></path><g fill="#141B34" fill-rule="evenodd"><path d="M12 1.25c-5.275 0-9.75 4.36-9.75 9.676 0 2.722 1.152 4.998 2.767 6.877 1.608 1.87 3.701 3.378 5.661 4.591l.013.008.013.008a2.636 2.636 0 0 0 2.592 0l.011-.007.011-.007c1.968-1.203 4.061-2.716 5.669-4.592 1.613-1.883 2.763-4.165 2.763-6.878 0-5.316-4.474-9.676-9.75-9.676Zm-8.25 9.676c0-4.47 3.784-8.176 8.25-8.176s8.25 3.706 8.25 8.176c0 2.257-.949 4.205-2.402 5.902-1.457 1.7-3.394 3.114-5.3 4.281a1.136 1.136 0 0 1-1.094.001c-1.905-1.18-3.842-2.59-5.3-4.285-1.454-1.692-2.404-3.634-2.404-5.9Zm8.245-3.676c-1.666 0-3.202.615-4.468 1.646a.75.75 0 1 0 .946 1.164c1.031-.84 2.24-1.31 3.522-1.31 1.286 0 2.498.474 3.53 1.318a.75.75 0 1 0 .95-1.162c-1.27-1.037-2.81-1.656-4.48-1.656Zm0 3.36a4.84 4.84 0 0 0-2.565.746.75.75 0 0 0 .79 1.275 3.343 3.343 0 0 1 1.775-.52c.632 0 1.236.185 1.782.525a.75.75 0 0 0 .794-1.272 4.845 4.845 0 0 0-2.576-.753Z"></path><path d="M11 15a1 1 0 0 1 1-1h.006a1 1 0 1 1 0 2H12a1 1 0 0 1-1-1Z"></path></g></g></symbol><symbol id="bfs-wifi-lock"><path fill="none" d="M0 0h21.5v18.5H0V0Z"></path><path fill="#141B34" fill-rule="evenodd" d="M21.234 4.177C17.964 1.416 14.376 0 10.75 0 7.124 0 3.536 1.416.266 4.177a.75.75 0 1 0 .968 1.146C4.28 2.751 7.534 1.5 10.75 1.5s6.47 1.25 9.516 3.823a.75.75 0 0 0 .968-1.146Zm-6.624 1.93c-1.825-.999-3.71-1.33-5.583-.96-1.862.37-3.644 1.422-5.305 3.07a.75.75 0 0 0 1.056 1.065C6.29 7.782 7.82 6.917 9.32 6.62c1.49-.295 3.018-.045 4.571.804a.75.75 0 1 0 .72-1.316Zm5.14 4.33V11.5c.075.023.15.05.224.083.62.275 1.097.796 1.342 1.43.106.274.147.555.166.852.018.285.018.632.018 1.047v.053c0 .415 0 .762-.018 1.047-.02.297-.06.578-.166.852a2.567 2.567 0 0 1-1.342 1.43c-.272.12-.551.166-.837.187-.27.02-.6.02-.984.02h-1.806c-.385 0-.713 0-.984-.02a2.457 2.457 0 0 1-.837-.187 2.567 2.567 0 0 1-1.342-1.43 2.815 2.815 0 0 1-.166-.852C13 15.726 13 15.38 13 14.964v-.053c0-.415 0-.762.018-1.047.02-.297.06-.578.166-.852a2.567 2.567 0 0 1 1.342-1.43c.074-.033.149-.06.224-.083v-1.062C14.75 9.066 15.895 8 17.25 8s2.5 1.066 2.5 2.438Zm-3.5 0c0-.492.422-.937 1-.937.578 0 1 .445 1 .938v.937h-2v-.938Zm-4.34-.312c-1.82-.396-3.747.152-5.19 1.595a.75.75 0 1 0 1.06 1.06c1.093-1.092 2.505-1.473 3.81-1.19a.75.75 0 0 0 .32-1.465Zm3.224 2.828c.05-.022.136-.047.338-.062.21-.015.484-.016.903-.016h1.75c.419 0 .692 0 .903.016.202.015.288.04.338.062.237.106.441.315.551.6.028.07.053.18.068.406.015.232.015.532.015.979 0 .446 0 .746-.015.978-.014.226-.04.335-.068.406-.11.285-.314.494-.552.6-.049.022-.135.047-.337.062-.21.015-.484.016-.903.016h-1.75c-.419 0-.693 0-.903-.016-.202-.015-.288-.04-.338-.062a1.068 1.068 0 0 1-.551-.6c-.028-.07-.053-.18-.068-.406a17.25 17.25 0 0 1-.015-.979c0-.446 0-.746.015-.978.014-.226.04-.335.068-.406a1.07 1.07 0 0 1 .551-.6Z"></path></symbol><symbol id="bfs-wifi-low-signal"><path fill="none" d="M0 0h21.5v19.5H0V0Z"></path><path fill="#141B34" fill-rule="evenodd" d="M10.75 0C7.692 0 4.837.92 2.418 2.51 1.234 3.288.26 3.874.038 5.202c-.114.675.037 1.26.338 1.847.283.551.731 1.158 1.257 1.875l5.336 7.279c.717.977 1.302 1.778 1.837 2.324.545.556 1.156.973 1.944.973s1.399-.416 1.944-.973c.535-.546 1.12-1.347 1.837-2.325l5.336-7.278c.526-.717.974-1.324 1.257-1.875.302-.586.452-1.172.338-1.847-.223-1.328-1.196-1.914-2.38-2.692A15.11 15.11 0 0 0 10.75 0ZM3.242 3.764A13.61 13.61 0 0 1 10.75 1.5c2.75 0 5.322.826 7.509 2.264 1.34.88 1.63 1.123 1.724 1.687.046.271.005.526-.193.912-.216.421-.578.919-1.132 1.674l-4.208 5.738a9.22 9.22 0 0 0-7.4 0L2.842 8.037c-.554-.755-.915-1.253-1.132-1.674-.198-.386-.239-.641-.193-.912.095-.564.384-.807 1.725-1.687Zm4.722 11.258a7.706 7.706 0 0 1 5.573 0l-.216.293c-.745 1.017-1.257 1.711-1.698 2.162-.432.441-.678.523-.873.523-.195 0-.44-.082-.872-.523-.442-.45-.954-1.145-1.699-2.162l-.215-.293Z"></path></symbol><symbol id="bfs-wifi-medium-signal"><path fill="none" d="M0 0h21.5v19.5H0V0Z"></path><path fill="#141B34" fill-rule="evenodd" d="m19.867 8.924-2.36 3.22-.151.244-.02-.012-2.805 3.827c-.717.977-1.302 1.778-1.837 2.324-.545.556-1.156.973-1.944.973s-1.399-.416-1.944-.973c-.535-.546-1.12-1.347-1.837-2.325l-2.805-3.826-.02.012-.15-.243-2.361-3.22C1.107 8.206.659 7.6.376 7.048.075 6.463-.076 5.877.038 5.202.26 3.874 1.234 3.288 2.418 2.51A15.11 15.11 0 0 1 10.75 0c3.058 0 5.913.92 8.332 2.51 1.184.778 2.157 1.364 2.38 2.692.114.675-.036 1.26-.338 1.847-.283.551-.731 1.158-1.256 1.875ZM3.242 3.764A13.61 13.61 0 0 1 10.75 1.5c2.75 0 5.322.826 7.509 2.264 1.34.88 1.63 1.123 1.724 1.687.046.271.005.526-.193.912-.216.421-.578.919-1.132 1.674l-1.753 2.39a13.979 13.979 0 0 0-12.31 0l-1.753-2.39c-.554-.755-.915-1.253-1.132-1.674-.198-.386-.239-.641-.193-.912.095-.564.384-.807 1.725-1.687Zm2.256 7.895a12.476 12.476 0 0 1 10.504 0l-1.551 2.116a9.22 9.22 0 0 0-7.401 0L5.498 11.66Zm2.466 3.362a7.706 7.706 0 0 1 5.573 0l-.216.294c-.745 1.017-1.257 1.711-1.698 2.162-.432.441-.678.523-.873.523-.195 0-.44-.082-.872-.523-.442-.45-.954-1.145-1.699-2.162l-.215-.293Z"></path></symbol><symbol id="bfs-wifi-no-signal"><path fill="none" d="M0 0h21.5v18.5H0V0Z"></path><path fill="#141B34" fill-rule="evenodd" d="M10.75 0a15.72 15.72 0 0 0-8.316 2.367c-.608.377-1.152.711-1.55 1.077-.439.402-.732.865-.845 1.497-.118.66.04 1.232.345 1.793.286.525.737 1.102 1.261 1.777l5.337 6.874c.716.923 1.303 1.682 1.84 2.199.55.53 1.156.916 1.928.916s1.378-.386 1.929-.916c.536-.517 1.123-1.276 1.84-2.199l5.336-6.874c.524-.675.975-1.252 1.26-1.777.306-.561.464-1.132.346-1.793-.112-.632-.406-1.095-.844-1.497-.399-.366-.943-.7-1.551-1.077A15.719 15.719 0 0 0 10.75 0ZM3.225 3.641A14.219 14.219 0 0 1 10.75 1.5c2.76 0 5.337.783 7.525 2.141.654.407 1.057.66 1.328.909.233.213.335.392.381.654.042.232.009.455-.186.813-.214.393-.573.86-1.128 1.574l-5.337 6.874c-.745.96-1.255 1.614-1.695 2.039-.427.41-.677.496-.888.496-.21 0-.461-.085-.887-.496-.44-.425-.95-1.079-1.696-2.039L2.83 7.591c-.555-.715-.914-1.18-1.128-1.574-.195-.358-.228-.58-.186-.813.046-.262.148-.44.38-.654.273-.25.675-.502 1.33-.909Z"></path></symbol><symbol id="bfs-wifi-off-01"><path fill="none" d="M0 0h21.5v21.5H0V0Z"></path><path fill="#141B34" fill-rule="evenodd" d="M1.28.22A.75.75 0 0 0 .22 1.28l3.117 3.117c-.962.574-2.053 1.42-3.07 2.28a.75.75 0 1 0 .967 1.146c1.155-.976 2.308-1.848 3.203-2.325l2.326 2.326a12.057 12.057 0 0 0-2.993 1.85.75.75 0 1 0 .96 1.152c1.008-.84 2.09-1.46 3.193-1.843l2.069 2.07c-1.226.167-2.326.734-3.269 1.663a.75.75 0 0 0 1.054 1.068c.973-.96 2.102-1.38 3.408-1.266a.75.75 0 0 0 .252-.02l8.783 8.782a.75.75 0 1 0 1.06-1.06l-20-20Zm19.954 6.457C17.162 3.238 12.603 1.893 8.109 2.75a.75.75 0 0 0 .282 1.474c3.979-.76 8.09.402 11.875 3.598a.75.75 0 0 0 .968-1.146Zm-8.87.332a.75.75 0 0 0-.228 1.482c1.613.248 3.207 1.073 4.617 2.32a.75.75 0 1 0 .994-1.123c-1.575-1.394-3.426-2.379-5.383-2.68ZM10.75 14.5a2.25 2.25 0 1 0 0 4.5 2.25 2.25 0 0 0 0-4.5ZM10 16.75a.75.75 0 1 1 1.5 0 .75.75 0 0 1-1.5 0Z"></path></symbol><symbol id="bfs-wifi-off-02"><g clip-path="url(#b)"><path fill="none" d="M0 0h24v24H0V0Z"></path><g fill="#141B34" fill-rule="evenodd"><path d="M11 18.5a1 1 0 0 1 1-1h.012a1 1 0 1 1 0 2H12a1 1 0 0 1-1-1Z"></path><path d="M2.53 1.47a.75.75 0 0 0-1.06 1.06l3.74 3.741A14.01 14.01 0 0 0 1.47 8.97a.75.75 0 0 0 1.06 1.06c1.268-1.267 2.502-2.033 3.804-2.635L8.57 9.63c-1.224.437-2.397 1.137-3.6 2.34a.75.75 0 1 0 1.06 1.06c1.261-1.26 2.445-1.858 3.738-2.201l2.423 2.422A5.776 5.776 0 0 0 7.97 14.97a.75.75 0 1 0 1.06 1.06c1.388-1.387 3.406-1.652 5.128-.77.025.013.05.024.075.034l7.237 7.236a.75.75 0 1 0 1.06-1.06L10.543 9.482a.759.759 0 0 0-.024-.024L7.041 5.98a.73.73 0 0 0-.02-.02L2.53 1.47Zm19.954 7.457C18.412 5.488 13.853 4.143 9.359 5a.75.75 0 0 0 .282 1.474c3.979-.76 8.09.402 11.875 3.598a.75.75 0 0 0 .968-1.146Zm-8.87.332a.75.75 0 0 0-.228 1.482c1.613.248 3.207 1.073 4.617 2.32a.75.75 0 0 0 .994-1.123c-1.575-1.393-3.426-2.379-5.383-2.68Z"></path></g></g></symbol><symbol id="bfs-wifi-square"><g clip-path="url(#b)"><path fill="none" d="M0 0h24v24H0V0Z"></path><g fill="#141B34" fill-rule="evenodd"><path d="M12 1.75h-.057c-2.19 0-3.912 0-5.255.18-1.377.186-2.469.573-3.327 1.43-.858.86-1.245 1.951-1.43 3.328-.181 1.343-.181 3.064-.181 5.255v.114c0 2.19 0 3.912.18 5.255.186 1.377.573 2.469 1.43 3.327.86.858 1.951 1.245 3.328 1.43 1.343.181 3.064.181 5.255.181h.114c2.191 0 3.912 0 5.255-.18 1.377-.186 2.469-.573 3.327-1.43.858-.86 1.245-1.951 1.43-3.328.181-1.343.181-3.064.181-5.255v-.114c0-2.191 0-3.912-.18-5.255-.186-1.377-.573-2.469-1.43-3.327-.86-.858-1.951-1.245-3.328-1.43-1.343-.181-3.064-.181-5.255-.181H12ZM4.422 4.422c.533-.533 1.256-.842 2.466-1.005C8.12 3.252 9.74 3.25 12 3.25c2.26 0 3.88.002 5.112.167 1.21.163 1.933.472 2.466 1.005.534.533.842 1.256 1.005 2.466.165 1.232.167 2.852.167 5.112 0 2.26-.002 3.88-.167 5.112-.163 1.21-.471 1.933-1.005 2.466-.533.534-1.256.842-2.466 1.005-1.232.165-2.852.167-5.112.167-2.26 0-3.88-.002-5.112-.167-1.21-.163-1.933-.471-2.466-1.005-.533-.533-.842-1.256-1.005-2.466C3.252 15.88 3.25 14.26 3.25 12c0-2.26.002-3.88.167-5.112.163-1.21.472-1.933 1.005-2.466Zm7.573 3.828A7.534 7.534 0 0 0 7.56 9.706a.75.75 0 0 0 .878 1.215 6.034 6.034 0 0 1 3.556-1.171c1.31 0 2.533.43 3.564 1.178a.75.75 0 1 0 .882-1.213 7.535 7.535 0 0 0-4.446-1.465Zm0 3.432c-.912 0-1.773.237-2.532.656a.75.75 0 1 0 .724 1.313 3.725 3.725 0 0 1 1.808-.47c.65 0 1.266.17 1.816.475a.75.75 0 0 0 .727-1.312 5.226 5.226 0 0 0-2.543-.662Z"></path><path d="M11 16a1 1 0 0 1 1-1h.006a1 1 0 0 1 0 2H12a1 1 0 0 1-1-1Z"></path></g></g></symbol><symbol id="bfs-wifi-unlock"><path fill="none" d="M0 0h21.5v18.5H0V0Z"></path><path fill="#141B34" fill-rule="evenodd" d="M21.234 4.177C17.964 1.416 14.376 0 10.75 0 7.124 0 3.536 1.416.266 4.177a.75.75 0 1 0 .968 1.146C4.28 2.751 7.534 1.5 10.75 1.5s6.47 1.25 9.516 3.823a.75.75 0 0 0 .968-1.146Zm-6.624 1.93c-1.825-.999-3.71-1.33-5.583-.96-1.862.37-3.644 1.422-5.305 3.07a.75.75 0 0 0 1.056 1.065C6.29 7.782 7.82 6.917 9.32 6.62c1.49-.295 3.018-.045 4.571.804a.75.75 0 1 0 .72-1.316ZM17.25 8a2.71 2.71 0 0 0-2.719 2.702v.855a2.493 2.493 0 0 0-1.235 1.114c-.172.32-.237.657-.267 1.008C13 14.011 13 14.42 13 14.9v.058c0 .48 0 .889.029 1.223.03.35.095.687.267 1.007.234.433.592.788 1.028 1.019.32.17.658.234 1.01.264.335.028.745.028 1.23.028h1.372c.485 0 .895 0 1.23-.028.352-.03.69-.095 1.01-.264a2.494 2.494 0 0 0 1.028-1.02c.172-.319.237-.656.267-1.006.029-.334.029-.742.029-1.223V14.9c0-.481 0-.889-.029-1.223-.03-.35-.095-.687-.267-1.007a2.493 2.493 0 0 0-1.028-1.019c-.32-.17-.658-.234-1.01-.264-.334-.028-.742-.028-1.225-.028h-1.382c-.187 0-.363 0-.528.002v-.66c0-.658.54-1.202 1.219-1.202.305 0 .581.11.794.29a.75.75 0 0 0 .972-1.143A2.72 2.72 0 0 0 17.25 8Zm-5.34 2.125c-1.82-.396-3.747.152-5.19 1.595a.75.75 0 1 0 1.06 1.06c1.093-1.092 2.505-1.473 3.81-1.19a.75.75 0 0 0 .32-1.465Zm3.116 2.852c.067-.035.178-.072.433-.094.265-.022.611-.023 1.135-.023h1.312c.524 0 .87 0 1.135.023.255.022.366.06.433.095a.994.994 0 0 1 .41.405c.034.064.071.172.093.424.022.261.023.604.023 1.123 0 .52 0 .862-.023 1.123-.022.252-.06.36-.094.424a.994.994 0 0 1-.41.405c-.066.036-.177.073-.432.095-.265.022-.611.023-1.135.023h-1.312c-.524 0-.87 0-1.135-.023-.255-.021-.366-.06-.433-.095a.994.994 0 0 1-.41-.405c-.034-.064-.071-.172-.093-.424a14.699 14.699 0 0 1-.023-1.123c0-.52 0-.862.023-1.123.022-.252.06-.36.094-.424a.994.994 0 0 1 .41-.405Z"></path></symbol><symbol id="bfs-wireless-cloud-access"><g clip-path="url(#b)"><path fill="none" d="M0 0h24v24H0V0Z"></path><g fill="#141B34" fill-rule="evenodd"><path d="M1.25 12.33c0-2.752 1.986-5.03 4.605-5.553C6.395 3.907 8.949 1.75 12 1.75c3.37 0 6.136 2.634 6.247 5.95 2.537.357 4.503 2.504 4.503 5.121 0 1.8-.933 3.381-2.338 4.306a.75.75 0 1 1-.824-1.253 3.65 3.65 0 0 0 1.662-3.053c0-1.814-1.35-3.337-3.138-3.624a6.1 6.1 0 0 1-1.295 2.632.75.75 0 0 1-1.148-.965 4.583 4.583 0 0 0 1.081-2.958c0-2.56-2.114-4.656-4.75-4.656-2.198 0-4.036 1.46-4.583 3.43 1.13.08 2.172.482 3.029 1.115A.75.75 0 1 1 9.555 9a4.285 4.285 0 0 0-2.965-.817c-2.165.203-3.84 1.992-3.84 4.146 0 1.483.792 2.791 1.995 3.531a.75.75 0 1 1-.785 1.278c-1.622-.997-2.71-2.775-2.71-4.81Z"></path><path d="M11.995 13.75c-1.666 0-3.202.615-4.468 1.646a.75.75 0 0 0 .946 1.164c1.031-.84 2.24-1.31 3.522-1.31 1.286 0 2.498.474 3.53 1.318a.75.75 0 0 0 .95-1.162c-1.27-1.037-2.81-1.656-4.48-1.656Zm0 3.36a4.84 4.84 0 0 0-2.565.746.75.75 0 0 0 .79 1.275 3.343 3.343 0 0 1 1.775-.52 3.34 3.34 0 0 1 1.782.525.75.75 0 0 0 .794-1.272 4.845 4.845 0 0 0-2.576-.753ZM11 21.5a1 1 0 0 1 1-1h.006a1 1 0 0 1 0 2H12a1 1 0 0 1-1-1Z"></path></g></g></symbol><symbol id="bfs-wireless"><g clip-path="url(#b)"><path fill="none" d="M0 0h24v24H0V0Z"></path><g fill="#141B34" fill-rule="evenodd"><path d="M11.995 10.25c-1.65 0-3.18.567-4.447 1.525a.75.75 0 0 0 .904 1.197c1.03-.779 2.246-1.222 3.543-1.222 1.3 0 2.52.446 3.552 1.23a.75.75 0 0 0 .906-1.196c-1.27-.964-2.803-1.534-4.458-1.534Zm0 3.124c-.919 0-1.784.25-2.545.688a.75.75 0 1 0 .75 1.3 3.573 3.573 0 0 1 1.795-.488c.643 0 1.255.175 1.803.493a.75.75 0 1 0 .752-1.298 5.075 5.075 0 0 0-2.555-.695ZM11 17.5a1 1 0 0 1 1-1h.006a1 1 0 0 1 0 2H12a1 1 0 0 1-1-1ZM6 6a1 1 0 0 1 1-1h.006a1 1 0 1 1 0 2H7a1 1 0 0 1-1-1Zm4 0a1 1 0 0 1 1-1h.006a1 1 0 1 1 0 2H11a1 1 0 0 1-1-1Z"></path><path d="M12 1.75h-.057c-2.19 0-3.912 0-5.255.18-1.377.186-2.469.573-3.327 1.43-.858.86-1.245 1.951-1.43 3.328-.181 1.343-.181 3.064-.181 5.255v.114c0 2.19 0 3.912.18 5.255.186 1.377.573 2.469 1.43 3.327.86.858 1.951 1.245 3.328 1.43 1.343.181 3.064.181 5.255.181h.114c2.191 0 3.912 0 5.255-.18 1.377-.186 2.469-.573 3.327-1.43.858-.86 1.245-1.951 1.43-3.328.181-1.343.181-3.064.181-5.255v-.114c0-2.191 0-3.912-.18-5.255-.186-1.377-.573-2.469-1.43-3.327-.86-.858-1.951-1.245-3.328-1.43-1.343-.181-3.064-.181-5.255-.181H12ZM4.422 4.422c.533-.533 1.256-.842 2.466-1.005C8.12 3.252 9.74 3.25 12 3.25c2.26 0 3.88.002 5.112.167 1.21.163 1.933.472 2.466 1.005.534.533.842 1.256 1.005 2.466.165 1.232.167 2.852.167 5.112 0 2.26-.002 3.88-.167 5.112-.163 1.21-.471 1.933-1.005 2.466-.533.534-1.256.842-2.466 1.005-1.232.165-2.852.167-5.112.167-2.26 0-3.88-.002-5.112-.167-1.21-.163-1.933-.471-2.466-1.005-.533-.533-.842-1.256-1.005-2.466C3.252 15.88 3.25 14.26 3.25 12c0-2.26.002-3.88.167-5.112.163-1.21.472-1.933 1.005-2.466Z"></path></g></g></symbol></svg>